{"glyphs":{"0":{"ha":806,"x_min":0,"x_max":0,"o":"m 410 -14 b 21 479 113 -14 21 277 b 400 974 21 684 110 974 b 787 478 664 974 787 717 b 410 -14 787 240 667 -14 m 406 149 b 610 481 551 149 610 330 b 400 808 610 635 550 808 b 191 479 250 808 191 633 b 406 149 191 326 250 149 "},"1":{"ha":806,"x_min":0,"x_max":0,"o":"m 376 699 l 123 699 l 123 829 l 281 829 b 383 932 346 829 383 865 l 383 958 l 546 958 l 546 0 l 376 0 "},"2":{"ha":806,"x_min":0,"x_max":0,"o":"m 32 136 b 386 404 37 140 237 258 b 539 677 472 489 539 579 b 404 817 539 754 498 817 b 237 610 279 817 241 708 l 69 621 b 403 971 69 799 192 971 b 711 688 579 971 711 851 b 492 294 711 539 602 400 b 315 155 427 232 361 183 l 758 155 l 758 0 l 32 0 "},"3":{"ha":806,"x_min":0,"x_max":0,"o":"m 392 -14 b 35 302 200 -14 35 90 l 199 313 b 393 144 199 205 282 144 b 582 296 492 144 582 193 b 416 436 582 382 519 436 l 306 436 l 306 581 l 416 581 b 529 690 496 581 529 629 b 390 812 529 772 468 812 b 243 676 302 812 244 761 l 81 688 b 387 972 81 868 222 972 b 694 711 547 972 694 875 b 611 521 694 635 663 567 b 746 286 704 469 743 382 b 392 -14 746 85 578 -14 "},"4":{"ha":806,"x_min":0,"x_max":0,"o":"m 449 225 l 5 225 l 5 325 l 473 958 l 618 958 l 618 382 l 771 382 l 771 225 l 618 225 l 618 0 l 449 0 m 449 382 l 449 694 l 227 382 "},"5":{"ha":806,"x_min":0,"x_max":0,"o":"m 397 -14 b 52 278 225 -14 86 117 l 211 322 b 397 142 229 235 281 142 b 574 328 501 142 574 235 b 397 504 574 422 510 504 b 235 415 335 504 269 471 l 79 454 l 172 958 l 705 958 l 705 800 l 309 800 l 273 621 b 422 659 326 648 374 659 b 749 326 602 659 749 509 b 397 -14 749 144 589 -14 "},"6":{"ha":806,"x_min":0,"x_max":0,"o":"m 404 -14 b 56 317 211 -14 56 134 b 107 486 56 380 74 437 l 395 958 l 591 958 l 385 643 l 406 643 b 754 322 596 643 754 509 b 404 -14 754 144 607 -14 m 406 147 b 586 321 504 147 586 225 b 406 494 586 416 504 494 b 224 321 306 494 224 416 b 406 147 224 225 306 147 "},"7":{"ha":806,"x_min":0,"x_max":0,"o":"m 546 802 l 62 802 l 62 958 l 754 958 l 754 871 l 329 0 l 139 0 "},"8":{"ha":806,"x_min":0,"x_max":0,"o":"m 403 -14 b 49 275 220 -14 49 82 b 187 518 49 383 103 468 b 97 711 127 568 97 636 b 403 972 97 878 244 972 b 708 713 561 972 708 876 b 618 518 708 633 673 566 b 757 277 708 465 757 380 b 403 -14 757 81 585 -14 m 406 582 b 545 705 486 582 545 627 b 406 829 545 785 485 829 b 267 708 330 829 267 790 b 406 582 267 632 321 582 m 401 134 b 586 283 503 134 586 182 b 401 436 586 382 507 436 b 216 285 294 436 216 382 b 401 134 216 182 301 134 "},"9":{"ha":806,"x_min":0,"x_max":0,"o":"m 421 315 l 400 315 b 52 636 210 315 52 450 b 401 972 52 814 199 972 b 750 642 595 972 750 825 b 699 472 750 578 732 521 l 411 0 l 214 0 m 400 464 b 582 637 500 464 582 542 b 400 811 582 733 500 811 b 220 637 301 811 220 733 b 400 464 220 542 301 464 "},"A":{"ha":911,"x_min":0,"x_max":0,"o":"m 392 958 l 521 958 l 903 0 l 717 0 l 643 208 l 271 208 l 196 0 l 8 0 m 585 355 l 457 705 l 329 355 "},"Á":{"ha":911,"x_min":0,"x_max":0,"o":"m 528 1238 l 704 1238 l 496 1042 l 375 1042 m 392 958 l 521 958 l 903 0 l 717 0 l 643 208 l 271 208 l 196 0 l 8 0 m 585 355 l 457 705 l 329 355 "},"Ă":{"ha":911,"x_min":0,"x_max":0,"o":"m 456 1055 b 241 1238 307 1055 241 1120 l 358 1238 b 456 1152 358 1178 401 1152 b 553 1238 512 1152 553 1181 l 669 1238 b 456 1055 669 1114 597 1055 m 392 958 l 521 958 l 903 0 l 717 0 l 643 208 l 271 208 l 196 0 l 8 0 m 585 355 l 457 705 l 329 355 "},"Ắ":{"ha":911,"x_min":0,"x_max":0,"o":"m 528 1518 l 704 1518 l 496 1322 l 375 1322 m 456 1055 b 241 1238 307 1055 241 1120 l 358 1238 b 456 1152 358 1178 401 1152 b 553 1238 512 1152 553 1181 l 669 1238 b 456 1055 669 1114 597 1055 m 392 958 l 521 958 l 903 0 l 717 0 l 643 208 l 271 208 l 196 0 l 8 0 m 585 355 l 457 705 l 329 355 "},"Ằ":{"ha":911,"x_min":0,"x_max":0,"o":"m 203 1518 l 379 1518 l 532 1309 l 412 1309 m 456 1055 b 241 1238 307 1055 241 1120 l 358 1238 b 456 1152 358 1178 401 1152 b 553 1238 512 1152 553 1181 l 669 1238 b 456 1055 669 1114 597 1055 m 392 958 l 521 958 l 903 0 l 717 0 l 643 208 l 271 208 l 196 0 l 8 0 m 585 355 l 457 705 l 329 355 "},"Ẵ":{"ha":911,"x_min":0,"x_max":0,"o":"m 542 1310 b 366 1407 435 1310 416 1407 b 321 1314 338 1407 321 1374 l 227 1314 b 371 1508 227 1439 282 1508 b 543 1413 467 1508 496 1413 b 585 1504 567 1413 585 1444 l 684 1504 b 542 1310 684 1379 629 1310 m 456 1055 b 241 1238 307 1055 241 1120 l 358 1238 b 456 1152 358 1178 401 1152 b 553 1238 512 1152 553 1181 l 669 1238 b 456 1055 669 1114 597 1055 m 392 958 l 521 958 l 903 0 l 717 0 l 643 208 l 271 208 l 196 0 l 8 0 m 585 355 l 457 705 l 329 355 "},"Ǎ":{"ha":911,"x_min":0,"x_max":0,"o":"m 240 1236 l 368 1236 l 454 1145 l 542 1236 l 669 1236 l 454 1011 m 392 958 l 521 958 l 903 0 l 717 0 l 643 208 l 271 208 l 196 0 l 8 0 m 585 355 l 457 705 l 329 355 "},"Â":{"ha":911,"x_min":0,"x_max":0,"o":"m 454 1263 l 669 1024 l 542 1024 l 454 1122 l 368 1024 l 240 1024 m 392 958 l 521 958 l 903 0 l 717 0 l 643 208 l 271 208 l 196 0 l 8 0 m 585 355 l 457 705 l 329 355 "},"Ấ":{"ha":911,"x_min":0,"x_max":0,"o":"m 528 1517 l 704 1517 l 496 1321 l 375 1321 m 454 1263 l 669 1024 l 542 1024 l 454 1122 l 368 1024 l 240 1024 m 392 958 l 521 958 l 903 0 l 717 0 l 643 208 l 271 208 l 196 0 l 8 0 m 585 355 l 457 705 l 329 355 "},"Ầ":{"ha":911,"x_min":0,"x_max":0,"o":"m 203 1517 l 379 1517 l 532 1308 l 412 1308 m 454 1263 l 669 1024 l 542 1024 l 454 1122 l 368 1024 l 240 1024 m 392 958 l 521 958 l 903 0 l 717 0 l 643 208 l 271 208 l 196 0 l 8 0 m 585 355 l 457 705 l 329 355 "},"Ẫ":{"ha":911,"x_min":0,"x_max":0,"o":"m 542 1308 b 366 1406 435 1308 416 1406 b 321 1313 338 1406 321 1373 l 227 1313 b 371 1507 227 1438 282 1507 b 543 1411 467 1507 496 1411 b 585 1503 567 1411 585 1443 l 684 1503 b 542 1308 684 1378 629 1308 m 454 1263 l 669 1024 l 542 1024 l 454 1122 l 368 1024 l 240 1024 m 392 958 l 521 958 l 903 0 l 717 0 l 643 208 l 271 208 l 196 0 l 8 0 m 585 355 l 457 705 l 329 355 "},"Ä":{"ha":911,"x_min":0,"x_max":0,"o":"m 265 1238 l 404 1238 l 404 1085 l 265 1085 m 506 1238 l 644 1238 l 644 1085 l 506 1085 m 392 958 l 521 958 l 903 0 l 717 0 l 643 208 l 271 208 l 196 0 l 8 0 m 585 355 l 457 705 l 329 355 "},"À":{"ha":911,"x_min":0,"x_max":0,"o":"m 203 1238 l 379 1238 l 532 1028 l 412 1028 m 392 958 l 521 958 l 903 0 l 717 0 l 643 208 l 271 208 l 196 0 l 8 0 m 585 355 l 457 705 l 329 355 "},"Ā":{"ha":911,"x_min":0,"x_max":0,"o":"m 265 1154 l 644 1154 l 644 1057 l 265 1057 m 392 958 l 521 958 l 903 0 l 717 0 l 643 208 l 271 208 l 196 0 l 8 0 m 585 355 l 457 705 l 329 355 "},"Ą":{"ha":911,"x_min":0,"x_max":0,"o":"m 964 -222 b 815 -306 932 -271 885 -306 b 663 -167 728 -306 663 -250 b 774 0 663 -57 774 0 l 717 0 l 643 208 l 271 208 l 196 0 l 8 0 l 392 958 l 521 958 l 903 0 b 761 -146 889 -4 761 -56 b 815 -204 761 -187 787 -204 b 881 -165 842 -204 863 -191 m 585 355 l 457 705 l 329 355 "},"Å":{"ha":911,"x_min":0,"x_max":0,"o":"m 368 899 b 300 1028 326 926 300 975 b 456 1183 300 1114 370 1183 b 612 1028 541 1183 612 1116 b 545 899 612 974 586 926 l 903 0 l 717 0 l 643 208 l 271 208 l 196 0 l 8 0 m 456 960 b 524 1029 496 960 524 989 b 456 1095 524 1067 498 1095 b 389 1029 415 1095 389 1067 b 456 960 389 989 418 960 m 585 355 l 457 705 l 329 355 "},"Ã":{"ha":911,"x_min":0,"x_max":0,"o":"m 542 1029 b 366 1126 435 1029 416 1126 b 321 1034 338 1126 321 1093 l 227 1034 b 371 1227 227 1158 282 1227 b 543 1132 467 1227 496 1132 b 585 1223 567 1132 585 1164 l 684 1223 b 542 1029 684 1099 629 1029 m 392 958 l 521 958 l 903 0 l 717 0 l 643 208 l 271 208 l 196 0 l 8 0 m 585 355 l 457 705 l 329 355 "},"Æ":{"ha":1260,"x_min":0,"x_max":0,"o":"m 387 958 l 1192 958 l 1192 814 l 685 814 l 685 551 l 1132 551 l 1132 407 l 685 407 l 685 149 l 1192 149 l 1192 0 l 526 0 l 526 208 l 257 208 l 182 0 l 8 0 m 526 342 l 526 814 l 494 814 l 311 342 "},"B":{"ha":864,"x_min":0,"x_max":0,"o":"m 123 958 l 456 958 b 762 700 602 958 762 892 b 656 513 762 612 710 542 b 810 278 743 478 810 374 b 497 0 810 100 660 0 l 123 0 m 472 572 b 604 690 539 572 604 596 b 458 803 604 765 541 803 l 296 803 l 296 572 m 500 164 b 640 297 589 164 640 207 b 493 424 640 366 583 424 l 296 424 l 296 164 "},"C":{"ha":971,"x_min":0,"x_max":0,"o":"m 519 -14 b 56 479 204 -14 56 216 b 518 974 56 742 203 974 b 937 699 708 974 860 878 l 777 635 b 517 810 741 761 642 810 b 227 486 314 810 227 664 b 519 150 227 296 314 150 b 779 328 643 150 728 199 l 939 262 b 519 -14 863 83 710 -14 "},"Ć":{"ha":971,"x_min":0,"x_max":0,"o":"m 555 1238 l 732 1238 l 524 1042 l 403 1042 m 519 -14 b 56 479 204 -14 56 216 b 518 974 56 742 203 974 b 937 699 708 974 860 878 l 777 635 b 517 810 741 761 642 810 b 227 486 314 810 227 664 b 519 150 227 296 314 150 b 779 328 643 150 728 199 l 939 262 b 519 -14 863 83 710 -14 "},"Č":{"ha":971,"x_min":0,"x_max":0,"o":"m 268 1236 l 396 1236 l 482 1145 l 570 1236 l 697 1236 l 482 1011 m 519 -14 b 56 479 204 -14 56 216 b 518 974 56 742 203 974 b 937 699 708 974 860 878 l 777 635 b 517 810 741 761 642 810 b 227 486 314 810 227 664 b 519 150 227 296 314 150 b 779 328 643 150 728 199 l 939 262 b 519 -14 863 83 710 -14 "},"Ç":{"ha":971,"x_min":0,"x_max":0,"o":"m 939 262 b 573 -11 870 100 739 5 l 529 -68 b 658 -201 612 -79 658 -129 b 503 -354 658 -288 591 -354 b 369 -267 446 -354 391 -318 l 461 -228 b 507 -260 468 -245 486 -260 b 561 -207 538 -260 561 -237 b 447 -132 561 -164 515 -132 l 399 -132 l 476 -12 b 56 479 191 8 56 229 b 518 974 56 742 203 974 b 937 699 708 974 860 878 l 777 635 b 517 810 741 761 642 810 b 227 486 314 810 227 664 b 519 150 227 296 314 150 b 779 328 643 150 728 199 l 939 262 "},"Ċ":{"ha":971,"x_min":0,"x_max":0,"o":"m 396 1238 l 570 1238 l 570 1085 l 396 1085 m 519 -14 b 56 479 204 -14 56 216 b 518 974 56 742 203 974 b 937 699 708 974 860 878 l 777 635 b 517 810 741 761 642 810 b 227 486 314 810 227 664 b 519 150 227 296 314 150 b 779 328 643 150 728 199 l 939 262 b 519 -14 863 83 710 -14 "},"D":{"ha":956,"x_min":0,"x_max":0,"o":"m 123 958 l 401 958 b 900 472 728 958 900 783 b 400 0 900 174 722 0 l 123 0 m 383 158 b 728 479 595 158 728 240 b 399 800 728 707 635 800 l 296 800 l 296 158 "},"Ǳ":{"ha":1805,"x_min":0,"x_max":0,"o":"m 123 958 l 401 958 b 900 472 728 958 900 783 b 400 0 900 174 722 0 l 123 0 m 982 119 l 1517 800 l 1013 800 l 1013 958 l 1754 958 l 1754 833 l 1223 155 l 1754 155 l 1754 0 l 982 0 m 383 158 b 728 479 595 158 728 240 b 399 800 728 707 635 800 l 296 800 l 296 158 "},"Ǆ":{"ha":1805,"x_min":0,"x_max":0,"o":"m 1153 1236 l 1281 1236 l 1367 1145 l 1455 1236 l 1582 1236 l 1367 1011 m 123 958 l 401 958 b 900 472 728 958 900 783 b 400 0 900 174 722 0 l 123 0 m 982 119 l 1517 800 l 1013 800 l 1013 958 l 1754 958 l 1754 833 l 1223 155 l 1754 155 l 1754 0 l 982 0 m 383 158 b 728 479 595 158 728 240 b 399 800 728 707 635 800 l 296 800 l 296 158 "},"Ð":{"ha":970,"x_min":0,"x_max":0,"o":"m 139 421 l 62 421 l 62 546 l 139 546 l 139 958 l 410 958 b 916 472 732 958 916 785 b 408 0 916 172 728 0 l 139 0 m 392 149 b 755 479 606 149 755 244 b 407 811 755 700 647 811 l 297 811 l 297 546 l 555 546 l 555 421 l 297 421 l 297 149 "},"Ď":{"ha":956,"x_min":0,"x_max":0,"o":"m 273 1236 l 401 1236 l 488 1145 l 575 1236 l 703 1236 l 488 1011 m 123 958 l 401 958 b 900 472 728 958 900 783 b 400 0 900 174 722 0 l 123 0 m 383 158 b 728 479 595 158 728 240 b 399 800 728 707 635 800 l 296 800 l 296 158 "},"Đ":{"ha":970,"x_min":0,"x_max":0,"o":"m 139 421 l 62 421 l 62 546 l 139 546 l 139 958 l 410 958 b 916 472 732 958 916 785 b 408 0 916 172 728 0 l 139 0 m 392 149 b 755 479 606 149 755 244 b 407 811 755 700 647 811 l 297 811 l 297 546 l 555 546 l 555 421 l 297 421 l 297 149 "},"ǲ":{"ha":1640,"x_min":0,"x_max":0,"o":"m 401 958 b 900 472 728 958 900 783 b 400 0 900 174 722 0 l 123 0 l 123 958 l 401 958 m 383 158 b 728 479 595 158 728 240 b 399 800 728 707 635 800 l 296 800 l 296 158 l 383 158 m 1593 559 l 1225 139 l 1593 139 l 1593 0 l 996 0 l 996 110 l 1379 539 l 1015 539 l 1015 677 l 1593 677 "},"ǅ":{"ha":1640,"x_min":0,"x_max":0,"o":"m 401 958 b 900 472 728 958 900 783 b 400 0 900 174 722 0 l 123 0 l 123 958 l 401 958 m 1293 732 l 1079 957 l 1207 957 l 1293 865 l 1381 957 l 1508 957 m 383 158 b 728 479 595 158 728 240 b 399 800 728 707 635 800 l 296 800 l 296 158 l 383 158 m 1593 559 l 1225 139 l 1593 139 l 1593 0 l 996 0 l 996 110 l 1379 539 l 1015 539 l 1015 677 l 1593 677 "},"E":{"ha":844,"x_min":0,"x_max":0,"o":"m 123 958 l 761 958 l 761 800 l 296 800 l 296 558 l 729 558 l 729 400 l 296 400 l 296 163 l 761 163 l 761 0 l 123 0 "},"É":{"ha":844,"x_min":0,"x_max":0,"o":"m 493 1238 l 669 1238 l 461 1042 l 340 1042 m 123 958 l 761 958 l 761 800 l 296 800 l 296 558 l 729 558 l 729 400 l 296 400 l 296 163 l 761 163 l 761 0 l 123 0 "},"Ě":{"ha":844,"x_min":0,"x_max":0,"o":"m 205 1236 l 334 1236 l 420 1145 l 507 1236 l 635 1236 l 420 1011 m 123 958 l 761 958 l 761 800 l 296 800 l 296 558 l 729 558 l 729 400 l 296 400 l 296 163 l 761 163 l 761 0 l 123 0 "},"Ê":{"ha":844,"x_min":0,"x_max":0,"o":"m 420 1263 l 635 1024 l 507 1024 l 420 1122 l 334 1024 l 205 1024 m 123 958 l 761 958 l 761 800 l 296 800 l 296 558 l 729 558 l 729 400 l 296 400 l 296 163 l 761 163 l 761 0 l 123 0 "},"Ế":{"ha":844,"x_min":0,"x_max":0,"o":"m 493 1517 l 669 1517 l 461 1321 l 340 1321 m 420 1263 l 635 1024 l 507 1024 l 420 1122 l 334 1024 l 205 1024 m 123 958 l 761 958 l 761 800 l 296 800 l 296 558 l 729 558 l 729 400 l 296 400 l 296 163 l 761 163 l 761 0 l 123 0 "},"Ề":{"ha":844,"x_min":0,"x_max":0,"o":"m 168 1517 l 345 1517 l 498 1308 l 377 1308 m 420 1263 l 635 1024 l 507 1024 l 420 1122 l 334 1024 l 205 1024 m 123 958 l 761 958 l 761 800 l 296 800 l 296 558 l 729 558 l 729 400 l 296 400 l 296 163 l 761 163 l 761 0 l 123 0 "},"Ễ":{"ha":844,"x_min":0,"x_max":0,"o":"m 507 1308 b 331 1406 401 1308 381 1406 b 287 1313 303 1406 287 1373 l 192 1313 b 336 1507 192 1438 248 1507 b 509 1411 433 1507 462 1411 b 551 1503 532 1411 551 1443 l 649 1503 b 507 1308 649 1378 595 1308 m 420 1263 l 635 1024 l 507 1024 l 420 1122 l 334 1024 l 205 1024 m 123 958 l 761 958 l 761 800 l 296 800 l 296 558 l 729 558 l 729 400 l 296 400 l 296 163 l 761 163 l 761 0 l 123 0 "},"Ë":{"ha":844,"x_min":0,"x_max":0,"o":"m 231 1238 l 370 1238 l 370 1085 l 231 1085 m 471 1238 l 610 1238 l 610 1085 l 471 1085 m 123 958 l 761 958 l 761 800 l 296 800 l 296 558 l 729 558 l 729 400 l 296 400 l 296 163 l 761 163 l 761 0 l 123 0 "},"Ė":{"ha":844,"x_min":0,"x_max":0,"o":"m 334 1238 l 507 1238 l 507 1085 l 334 1085 m 123 958 l 761 958 l 761 800 l 296 800 l 296 558 l 729 558 l 729 400 l 296 400 l 296 163 l 761 163 l 761 0 l 123 0 "},"È":{"ha":844,"x_min":0,"x_max":0,"o":"m 168 1238 l 345 1238 l 498 1028 l 377 1028 m 123 958 l 761 958 l 761 800 l 296 800 l 296 558 l 729 558 l 729 400 l 296 400 l 296 163 l 761 163 l 761 0 l 123 0 "},"Ē":{"ha":844,"x_min":0,"x_max":0,"o":"m 231 1154 l 610 1154 l 610 1057 l 231 1057 m 123 958 l 761 958 l 761 800 l 296 800 l 296 558 l 729 558 l 729 400 l 296 400 l 296 163 l 761 163 l 761 0 l 123 0 "},"Ę":{"ha":844,"x_min":0,"x_max":0,"o":"m 822 -222 b 673 -306 790 -271 743 -306 b 521 -167 586 -306 521 -250 b 632 0 521 -57 632 0 l 123 0 l 123 958 l 761 958 l 761 800 l 296 800 l 296 558 l 729 558 l 729 400 l 296 400 l 296 163 l 761 163 l 761 0 b 619 -146 747 -4 619 -56 b 673 -204 619 -187 646 -204 b 739 -165 700 -204 721 -191 "},"Ẽ":{"ha":844,"x_min":0,"x_max":0,"o":"m 507 1029 b 331 1126 401 1029 381 1126 b 287 1034 303 1126 287 1093 l 192 1034 b 336 1227 192 1158 248 1227 b 509 1132 433 1227 462 1132 b 551 1223 532 1132 551 1164 l 649 1223 b 507 1029 649 1099 595 1029 m 123 958 l 761 958 l 761 800 l 296 800 l 296 558 l 729 558 l 729 400 l 296 400 l 296 163 l 761 163 l 761 0 l 123 0 "},"F":{"ha":838,"x_min":0,"x_max":0,"o":"m 123 958 l 803 958 l 803 800 l 296 800 l 296 558 l 743 558 l 743 400 l 296 400 l 296 0 l 123 0 "},"G":{"ha":1040,"x_min":0,"x_max":0,"o":"m 519 -14 b 56 479 204 -14 56 216 b 518 974 56 742 201 974 b 936 699 707 974 859 878 l 783 635 b 517 823 739 765 639 823 b 227 486 314 823 227 664 b 519 140 227 296 314 140 b 787 379 657 140 768 233 l 570 379 l 570 518 l 954 518 l 954 0 l 818 0 l 803 135 b 519 -14 751 45 647 -14 "},"Ğ":{"ha":1040,"x_min":0,"x_max":0,"o":"m 517 1055 b 302 1238 368 1055 302 1120 l 419 1238 b 517 1152 419 1178 463 1152 b 614 1238 573 1152 614 1181 l 730 1238 b 517 1055 730 1114 658 1055 m 519 -14 b 56 479 204 -14 56 216 b 518 974 56 742 201 974 b 936 699 707 974 859 878 l 783 635 b 517 823 739 765 639 823 b 227 486 314 823 227 664 b 519 140 227 296 314 140 b 787 379 657 140 768 233 l 570 379 l 570 518 l 954 518 l 954 0 l 818 0 l 803 135 b 519 -14 751 45 647 -14 "},"Ģ":{"ha":1040,"x_min":0,"x_max":0,"o":"m 519 -14 b 56 479 204 -14 56 216 b 518 974 56 742 201 974 b 936 699 707 974 859 878 l 783 635 b 517 823 739 765 639 823 b 227 486 314 823 227 664 b 519 140 227 296 314 140 b 787 379 657 140 768 233 l 570 379 l 570 518 l 954 518 l 954 0 l 818 0 l 803 135 b 519 -14 751 45 647 -14 m 445 -72 l 617 -72 l 449 -311 l 353 -311 "},"Ġ":{"ha":1040,"x_min":0,"x_max":0,"o":"m 429 1238 l 603 1238 l 603 1085 l 429 1085 m 519 -14 b 56 479 204 -14 56 216 b 518 974 56 742 201 974 b 936 699 707 974 859 878 l 783 635 b 517 823 739 765 639 823 b 227 486 314 823 227 664 b 519 140 227 296 314 140 b 787 379 657 140 768 233 l 570 379 l 570 518 l 954 518 l 954 0 l 818 0 l 803 135 b 519 -14 751 45 647 -14 "},"H":{"ha":1011,"x_min":0,"x_max":0,"o":"m 123 958 l 296 958 l 296 558 l 715 558 l 715 958 l 888 958 l 888 0 l 715 0 l 715 400 l 296 400 l 296 0 l 123 0 "},"Ħ":{"ha":1011,"x_min":0,"x_max":0,"o":"m 956 707 l 888 707 l 888 0 l 715 0 l 715 400 l 296 400 l 296 0 l 123 0 l 123 707 l 54 707 l 54 804 l 123 804 l 123 958 l 296 958 l 296 804 l 715 804 l 715 958 l 888 958 l 888 804 l 956 804 m 715 707 l 296 707 l 296 558 l 715 558 "},"I":{"ha":419,"x_min":0,"x_max":0,"o":"m 123 958 l 296 958 l 296 0 l 123 0 "},"Ĳ":{"ha":1192,"x_min":0,"x_max":0,"o":"m 123 958 l 296 958 l 296 0 l 123 0 m 764 -14 b 440 298 568 -14 452 129 l 610 318 b 764 146 616 224 661 146 b 915 343 888 146 915 218 l 915 800 l 554 800 l 554 958 l 1087 958 l 1087 346 b 764 -14 1087 142 998 -14 "},"Í":{"ha":419,"x_min":0,"x_max":0,"o":"m 281 1238 l 458 1238 l 250 1042 l 129 1042 m 123 958 l 296 958 l 296 0 l 123 0 "},"Ǐ":{"ha":419,"x_min":0,"x_max":0,"o":"m -6 1236 l 122 1236 l 208 1145 l 296 1236 l 423 1236 l 208 1011 m 123 958 l 296 958 l 296 0 l 123 0 "},"Î":{"ha":419,"x_min":0,"x_max":0,"o":"m 208 1263 l 423 1024 l 296 1024 l 208 1122 l 122 1024 l -6 1024 m 123 958 l 296 958 l 296 0 l 123 0 "},"Ï":{"ha":419,"x_min":0,"x_max":0,"o":"m 19 1238 l 158 1238 l 158 1085 l 19 1085 m 260 1238 l 398 1238 l 398 1085 l 260 1085 m 123 958 l 296 958 l 296 0 l 123 0 "},"İ":{"ha":419,"x_min":0,"x_max":0,"o":"m 122 1238 l 296 1238 l 296 1085 l 122 1085 m 123 958 l 296 958 l 296 0 l 123 0 "},"Ì":{"ha":419,"x_min":0,"x_max":0,"o":"m -43 1238 l 133 1238 l 286 1028 l 165 1028 m 123 958 l 296 958 l 296 0 l 123 0 "},"Ī":{"ha":419,"x_min":0,"x_max":0,"o":"m 19 1154 l 398 1154 l 398 1057 l 19 1057 m 123 958 l 296 958 l 296 0 l 123 0 "},"Į":{"ha":419,"x_min":0,"x_max":0,"o":"m 357 -222 b 208 -306 325 -271 278 -306 b 56 -167 121 -306 56 -250 b 167 0 56 -57 167 0 l 123 0 l 123 958 l 296 958 l 296 0 b 154 -146 282 -4 154 -56 b 208 -204 154 -187 180 -204 b 274 -165 235 -204 256 -191 "},"Ĩ":{"ha":419,"x_min":0,"x_max":0,"o":"m 296 1029 b 119 1126 189 1029 170 1126 b 75 1034 92 1126 75 1093 l -20 1034 b 125 1227 -20 1158 36 1227 b 297 1132 221 1227 250 1132 b 339 1223 321 1132 339 1164 l 437 1223 b 296 1029 437 1099 383 1029 m 123 958 l 296 958 l 296 0 l 123 0 "},"J":{"ha":772,"x_min":0,"x_max":0,"o":"m 345 -14 b 21 298 149 -14 33 129 l 191 318 b 345 146 197 224 241 146 b 496 343 469 146 496 218 l 496 800 l 135 800 l 135 958 l 668 958 l 668 346 b 345 -14 668 142 579 -14 "},"K":{"ha":1011,"x_min":0,"x_max":0,"o":"m 123 958 l 296 958 l 296 458 l 762 958 l 993 958 l 610 566 l 1000 0 l 786 0 l 490 450 l 296 249 l 296 0 l 123 0 "},"Ķ":{"ha":1011,"x_min":0,"x_max":0,"o":"m 123 958 l 296 958 l 296 458 l 762 958 l 993 958 l 610 566 l 1000 0 l 786 0 l 490 450 l 296 249 l 296 0 l 123 0 m 428 -72 l 600 -72 l 432 -311 l 336 -311 "},"L":{"ha":721,"x_min":0,"x_max":0,"o":"m 123 958 l 296 958 l 296 163 l 705 163 l 705 0 l 123 0 "},"Ǉ":{"ha":1517,"x_min":0,"x_max":0,"o":"m 123 958 l 296 958 l 296 163 l 705 163 l 705 0 l 123 0 m 1089 -14 b 766 298 893 -14 778 129 l 935 318 b 1089 146 942 224 986 146 b 1240 343 1214 146 1240 218 l 1240 800 l 880 800 l 880 958 l 1413 958 l 1413 346 b 1089 -14 1413 142 1324 -14 "},"Ĺ":{"ha":721,"x_min":0,"x_max":0,"o":"m 283 1238 l 459 1238 l 251 1042 l 130 1042 m 123 958 l 296 958 l 296 163 l 705 163 l 705 0 l 123 0 "},"Ľ":{"ha":746,"x_min":0,"x_max":0,"o":"m 123 958 l 296 958 l 296 163 l 705 163 l 705 0 l 123 0 m 532 958 l 705 958 l 551 650 l 454 650 "},"Ļ":{"ha":721,"x_min":0,"x_max":0,"o":"m 123 958 l 296 958 l 296 163 l 705 163 l 705 0 l 123 0 m 295 -72 l 467 -72 l 299 -311 l 203 -311 "},"ǈ":{"ha":1096,"x_min":0,"x_max":0,"o":"m 123 958 l 296 958 l 296 163 l 705 163 l 705 0 l 123 0 m 826 958 l 1001 958 l 1001 806 l 826 806 m 800 -297 b 682 -275 758 -297 709 -286 l 724 -132 b 783 -147 747 -142 768 -147 b 831 -83 815 -147 831 -126 l 831 677 l 997 677 l 997 -71 b 800 -297 997 -195 936 -297 "},"Ł":{"ha":739,"x_min":0,"x_max":0,"o":"m 724 163 l 724 0 l 142 0 l 142 214 l 71 134 l 71 317 l 142 397 l 142 958 l 314 958 l 314 591 l 476 774 l 476 591 l 314 408 l 314 163 "},"M":{"ha":1219,"x_min":0,"x_max":0,"o":"m 123 958 l 355 958 l 610 277 l 864 958 l 1096 958 l 1096 0 l 930 0 l 930 717 l 693 83 l 526 83 l 289 717 l 289 0 l 123 0 "},"N":{"ha":986,"x_min":0,"x_max":0,"o":"m 123 958 l 294 958 l 697 288 l 697 958 l 863 958 l 863 0 l 690 0 l 289 672 l 289 0 l 123 0 "},"Ǌ":{"ha":1758,"x_min":0,"x_max":0,"o":"m 123 958 l 294 958 l 697 288 l 697 958 l 863 958 l 863 0 l 690 0 l 289 672 l 289 0 l 123 0 m 1331 -14 b 1007 298 1135 -14 1019 129 l 1177 318 b 1331 146 1183 224 1227 146 b 1482 343 1455 146 1482 218 l 1482 800 l 1121 800 l 1121 958 l 1654 958 l 1654 346 b 1331 -14 1654 142 1565 -14 "},"Ń":{"ha":986,"x_min":0,"x_max":0,"o":"m 565 1238 l 741 1238 l 533 1042 l 412 1042 m 123 958 l 294 958 l 697 288 l 697 958 l 863 958 l 863 0 l 690 0 l 289 672 l 289 0 l 123 0 "},"Ň":{"ha":986,"x_min":0,"x_max":0,"o":"m 277 1236 l 406 1236 l 492 1145 l 579 1236 l 707 1236 l 492 1011 m 123 958 l 294 958 l 697 288 l 697 958 l 863 958 l 863 0 l 690 0 l 289 672 l 289 0 l 123 0 "},"Ņ":{"ha":986,"x_min":0,"x_max":0,"o":"m 123 958 l 294 958 l 697 288 l 697 958 l 863 958 l 863 0 l 690 0 l 289 672 l 289 0 l 123 0 m 421 -72 l 593 -72 l 425 -311 l 330 -311 "},"Ŋ":{"ha":986,"x_min":0,"x_max":0,"o":"m 558 -142 b 705 -32 673 -149 734 -96 l 289 676 l 289 0 l 123 0 l 123 957 l 294 957 l 697 282 l 697 957 l 861 957 l 861 0 b 640 -250 861 -127 815 -250 l 558 -250 "},"ǋ":{"ha":1353,"x_min":0,"x_max":0,"o":"m 123 958 l 294 958 l 697 288 l 697 958 l 863 958 l 863 0 l 690 0 l 289 672 l 289 0 l 123 0 m 1083 958 l 1258 958 l 1258 806 l 1083 806 m 1057 -297 b 939 -275 1015 -297 966 -286 l 981 -132 b 1040 -147 1004 -142 1025 -147 b 1088 -83 1072 -147 1088 -126 l 1088 677 l 1254 677 l 1254 -71 b 1057 -297 1254 -195 1193 -297 "},"Ñ":{"ha":986,"x_min":0,"x_max":0,"o":"m 579 1029 b 403 1126 473 1029 453 1126 b 359 1034 375 1126 359 1093 l 264 1034 b 408 1227 264 1158 319 1227 b 581 1132 505 1227 534 1132 b 623 1223 604 1132 623 1164 l 721 1223 b 579 1029 721 1099 667 1029 m 123 958 l 294 958 l 697 288 l 697 958 l 863 958 l 863 0 l 690 0 l 289 672 l 289 0 l 123 0 "},"O":{"ha":1036,"x_min":0,"x_max":0,"o":"m 518 -14 b 56 479 201 -14 56 218 b 518 972 56 741 201 972 b 981 479 835 972 981 741 b 518 -14 981 218 835 -14 m 518 139 b 799 479 724 139 799 298 b 518 819 799 660 724 819 b 237 479 313 819 237 660 b 518 139 237 298 313 139 "},"Ó":{"ha":1036,"x_min":0,"x_max":0,"o":"m 590 1238 l 766 1238 l 558 1042 l 437 1042 m 518 -14 b 56 479 201 -14 56 218 b 518 972 56 741 201 972 b 981 479 835 972 981 741 b 518 -14 981 218 835 -14 m 518 139 b 799 479 724 139 799 298 b 518 819 799 660 724 819 b 237 479 313 819 237 660 b 518 139 237 298 313 139 "},"Ǒ":{"ha":1036,"x_min":0,"x_max":0,"o":"m 302 1236 l 431 1236 l 517 1145 l 604 1236 l 732 1236 l 517 1011 m 518 -14 b 56 479 201 -14 56 218 b 518 972 56 741 201 972 b 981 479 835 972 981 741 b 518 -14 981 218 835 -14 m 518 139 b 799 479 724 139 799 298 b 518 819 799 660 724 819 b 237 479 313 819 237 660 b 518 139 237 298 313 139 "},"Ô":{"ha":1036,"x_min":0,"x_max":0,"o":"m 517 1263 l 732 1024 l 604 1024 l 517 1122 l 431 1024 l 302 1024 m 518 -14 b 56 479 201 -14 56 218 b 518 972 56 741 201 972 b 981 479 835 972 981 741 b 518 -14 981 218 835 -14 m 518 139 b 799 479 724 139 799 298 b 518 819 799 660 724 819 b 237 479 313 819 237 660 b 518 139 237 298 313 139 "},"Ố":{"ha":1036,"x_min":0,"x_max":0,"o":"m 590 1517 l 766 1517 l 558 1321 l 437 1321 m 517 1263 l 732 1024 l 604 1024 l 517 1122 l 431 1024 l 302 1024 m 518 -14 b 56 479 201 -14 56 218 b 518 972 56 741 201 972 b 981 479 835 972 981 741 b 518 -14 981 218 835 -14 m 518 139 b 799 479 724 139 799 298 b 518 819 799 660 724 819 b 237 479 313 819 237 660 b 518 139 237 298 313 139 "},"Ồ":{"ha":1036,"x_min":0,"x_max":0,"o":"m 265 1517 l 441 1517 l 595 1308 l 474 1308 m 517 1263 l 732 1024 l 604 1024 l 517 1122 l 431 1024 l 302 1024 m 518 -14 b 56 479 201 -14 56 218 b 518 972 56 741 201 972 b 981 479 835 972 981 741 b 518 -14 981 218 835 -14 m 518 139 b 799 479 724 139 799 298 b 518 819 799 660 724 819 b 237 479 313 819 237 660 b 518 139 237 298 313 139 "},"Ỗ":{"ha":1036,"x_min":0,"x_max":0,"o":"m 604 1308 b 428 1406 498 1308 478 1406 b 384 1313 400 1406 384 1373 l 289 1313 b 433 1507 289 1438 345 1507 b 606 1411 530 1507 559 1411 b 648 1503 629 1411 648 1443 l 746 1503 b 604 1308 746 1378 692 1308 m 517 1263 l 732 1024 l 604 1024 l 517 1122 l 431 1024 l 302 1024 m 518 -14 b 56 479 201 -14 56 218 b 518 972 56 741 201 972 b 981 479 835 972 981 741 b 518 -14 981 218 835 -14 m 518 139 b 799 479 724 139 799 298 b 518 819 799 660 724 819 b 237 479 313 819 237 660 b 518 139 237 298 313 139 "},"Ö":{"ha":1036,"x_min":0,"x_max":0,"o":"m 328 1238 l 467 1238 l 467 1085 l 328 1085 m 568 1238 l 707 1238 l 707 1085 l 568 1085 m 518 -14 b 56 479 201 -14 56 218 b 518 972 56 741 201 972 b 981 479 835 972 981 741 b 518 -14 981 218 835 -14 m 518 139 b 799 479 724 139 799 298 b 518 819 799 660 724 819 b 237 479 313 819 237 660 b 518 139 237 298 313 139 "},"Ò":{"ha":1036,"x_min":0,"x_max":0,"o":"m 265 1238 l 441 1238 l 595 1028 l 474 1028 m 518 -14 b 56 479 201 -14 56 218 b 518 972 56 741 201 972 b 981 479 835 972 981 741 b 518 -14 981 218 835 -14 m 518 139 b 799 479 724 139 799 298 b 518 819 799 660 724 819 b 237 479 313 819 237 660 b 518 139 237 298 313 139 "},"Ő":{"ha":1036,"x_min":0,"x_max":0,"o":"m 467 1238 l 615 1238 l 435 1014 l 314 1014 m 703 1238 l 879 1238 l 671 1014 l 550 1014 m 518 -14 b 56 479 201 -14 56 218 b 518 972 56 741 201 972 b 981 479 835 972 981 741 b 518 -14 981 218 835 -14 m 518 139 b 799 479 724 139 799 298 b 518 819 799 660 724 819 b 237 479 313 819 237 660 b 518 139 237 298 313 139 "},"Ō":{"ha":1036,"x_min":0,"x_max":0,"o":"m 328 1154 l 707 1154 l 707 1057 l 328 1057 m 518 -14 b 56 479 201 -14 56 218 b 518 972 56 741 201 972 b 981 479 835 972 981 741 b 518 -14 981 218 835 -14 m 518 139 b 799 479 724 139 799 298 b 518 819 799 660 724 819 b 237 479 313 819 237 660 b 518 139 237 298 313 139 "},"Ø":{"ha":1036,"x_min":0,"x_max":0,"o":"m 819 873 b 981 479 928 782 981 636 b 518 -14 981 218 835 -14 b 307 29 436 -14 366 2 l 289 0 l 165 0 l 218 85 b 56 479 108 178 56 323 b 518 972 56 741 201 972 b 729 930 600 972 669 957 l 746 958 l 869 958 l 819 873 m 237 479 b 307 233 237 385 258 296 l 646 793 b 518 819 610 810 568 819 b 237 479 313 819 237 660 m 518 139 b 799 479 724 139 799 298 b 729 726 799 574 778 663 l 389 166 b 518 139 425 149 468 139 "},"Õ":{"ha":1036,"x_min":0,"x_max":0,"o":"m 604 1029 b 428 1126 498 1029 478 1126 b 384 1034 400 1126 384 1093 l 289 1034 b 433 1227 289 1158 345 1227 b 606 1132 530 1227 559 1132 b 648 1223 629 1132 648 1164 l 746 1223 b 604 1029 746 1099 692 1029 m 518 -14 b 56 479 201 -14 56 218 b 518 972 56 741 201 972 b 981 479 835 972 981 741 b 518 -14 981 218 835 -14 m 518 139 b 799 479 724 139 799 298 b 518 819 799 660 724 819 b 237 479 313 819 237 660 b 518 139 237 298 313 139 "},"Œ":{"ha":1529,"x_min":0,"x_max":0,"o":"m 518 -14 b 56 479 201 -14 56 218 b 518 972 56 741 201 972 b 808 859 650 972 746 928 l 808 958 l 1446 958 l 1446 800 l 981 800 l 981 558 l 1414 558 l 1414 400 l 981 400 l 981 163 l 1446 163 l 1446 0 l 808 0 l 808 100 b 518 -14 742 28 648 -14 m 518 149 b 808 479 724 149 808 298 b 518 810 808 660 724 810 b 228 479 313 810 228 660 b 518 149 228 298 313 149 "},"P":{"ha":791,"x_min":0,"x_max":0,"o":"m 123 958 l 424 958 b 762 675 619 958 762 856 b 424 397 762 496 619 397 l 294 397 l 294 0 l 123 0 m 424 558 b 591 675 542 558 591 599 b 424 798 591 753 541 798 l 294 798 l 294 558 "},"Þ":{"ha":781,"x_min":0,"x_max":0,"o":"m 123 958 l 281 958 l 281 827 l 454 827 b 749 555 648 827 749 720 b 416 269 749 363 610 269 l 281 269 l 281 0 l 123 0 m 416 412 b 591 550 536 412 591 460 b 416 692 591 640 536 692 l 281 692 l 281 412 "},"Q":{"ha":1067,"x_min":0,"x_max":0,"o":"m 775 57 b 518 -14 705 11 619 -14 b 56 479 201 -14 56 218 b 518 972 56 741 201 972 b 981 478 835 972 981 739 b 886 154 981 355 947 239 l 1023 24 l 913 -81 m 518 149 b 653 176 572 149 618 160 l 522 296 l 633 397 l 761 279 b 808 479 794 339 808 404 b 518 810 808 660 724 810 b 228 479 313 810 228 660 b 518 149 228 298 313 149 "},"R":{"ha":860,"x_min":0,"x_max":0,"o":"m 123 958 l 433 958 b 765 676 612 958 765 856 b 578 427 765 555 686 464 l 844 -1 l 647 -1 l 411 410 l 296 410 l 296 -1 l 123 -1 m 449 550 b 595 673 541 554 595 602 b 435 804 595 753 533 804 l 297 804 l 297 550 "},"Ŕ":{"ha":860,"x_min":0,"x_max":0,"o":"m 494 1238 l 671 1238 l 463 1042 l 342 1042 m 123 958 l 433 958 b 765 676 612 958 765 856 b 578 427 765 555 686 464 l 844 -1 l 647 -1 l 411 410 l 296 410 l 296 -1 l 123 -1 m 449 550 b 595 673 541 554 595 602 b 435 804 595 753 533 804 l 297 804 l 297 550 "},"Ř":{"ha":860,"x_min":0,"x_max":0,"o":"m 207 1236 l 335 1236 l 421 1145 l 509 1236 l 636 1236 l 421 1011 m 123 958 l 433 958 b 765 676 612 958 765 856 b 578 427 765 555 686 464 l 844 -1 l 647 -1 l 411 410 l 296 410 l 296 -1 l 123 -1 m 449 550 b 595 673 541 554 595 602 b 435 804 595 753 533 804 l 297 804 l 297 550 "},"Ŗ":{"ha":860,"x_min":0,"x_max":0,"o":"m 123 958 l 433 958 b 765 676 612 958 765 856 b 578 427 765 555 686 464 l 844 -1 l 647 -1 l 411 410 l 296 410 l 296 -1 l 123 -1 m 449 550 b 595 673 541 554 595 602 b 435 804 595 753 533 804 l 297 804 l 297 550 m 395 -72 l 567 -72 l 399 -311 l 303 -311 "},"S":{"ha":771,"x_min":0,"x_max":0,"o":"m 397 -11 b 31 271 228 -11 61 82 l 201 314 b 400 142 214 195 298 142 b 558 264 503 142 558 196 b 94 708 558 463 94 396 b 393 972 94 878 232 972 b 685 804 511 972 619 921 l 542 717 b 387 819 509 782 452 819 b 267 717 319 819 267 778 b 730 279 267 536 730 597 b 397 -11 730 98 581 -11 "},"Ś":{"ha":771,"x_min":0,"x_max":0,"o":"m 455 1238 l 631 1238 l 423 1042 l 302 1042 m 397 -11 b 31 271 228 -11 61 82 l 201 314 b 400 142 214 195 298 142 b 558 264 503 142 558 196 b 94 708 558 463 94 396 b 393 972 94 878 232 972 b 685 804 511 972 619 921 l 542 717 b 387 819 509 782 452 819 b 267 717 319 819 267 778 b 730 279 267 536 730 597 b 397 -11 730 98 581 -11 "},"Š":{"ha":771,"x_min":0,"x_max":0,"o":"m 168 1236 l 296 1236 l 382 1145 l 469 1236 l 597 1236 l 382 1011 m 397 -11 b 31 271 228 -11 61 82 l 201 314 b 400 142 214 195 298 142 b 558 264 503 142 558 196 b 94 708 558 463 94 396 b 393 972 94 878 232 972 b 685 804 511 972 619 921 l 542 717 b 387 819 509 782 452 819 b 267 717 319 819 267 778 b 730 279 267 536 730 597 b 397 -11 730 98 581 -11 "},"Ş":{"ha":771,"x_min":0,"x_max":0,"o":"m 730 279 b 425 -10 730 108 595 1 l 380 -68 b 509 -201 464 -79 509 -129 b 354 -354 509 -288 443 -354 b 220 -267 297 -354 243 -318 l 313 -228 b 358 -260 319 -245 337 -260 b 412 -207 390 -260 412 -237 b 298 -132 412 -164 366 -132 l 251 -132 l 332 -6 b 31 271 186 15 57 106 l 201 314 b 400 142 214 195 298 142 b 558 264 503 142 558 196 b 94 708 558 463 94 396 b 393 972 94 878 232 972 b 685 804 511 972 619 921 l 542 717 b 387 819 509 782 452 819 b 267 717 319 819 267 778 b 730 279 267 536 730 597 "},"Ș":{"ha":771,"x_min":0,"x_max":0,"o":"m 397 -11 b 31 271 228 -11 61 82 l 201 314 b 400 142 214 195 298 142 b 558 264 503 142 558 196 b 94 708 558 463 94 396 b 393 972 94 878 232 972 b 685 804 511 972 619 921 l 542 717 b 387 819 509 782 452 819 b 267 717 319 819 267 778 b 730 279 267 536 730 597 b 397 -11 730 98 581 -11 m 311 -72 l 484 -72 l 315 -311 l 220 -311 "},"T":{"ha":800,"x_min":0,"x_max":0,"o":"m 314 804 l 14 804 l 14 958 l 786 958 l 786 804 l 486 804 l 486 0 l 314 0 "},"Ŧ":{"ha":800,"x_min":0,"x_max":0,"o":"m 486 804 l 486 535 l 615 535 l 615 424 l 486 424 l 486 0 l 314 0 l 314 424 l 184 424 l 184 535 l 314 535 l 314 804 l 14 804 l 14 958 l 786 958 l 786 804 "},"Ť":{"ha":800,"x_min":0,"x_max":0,"o":"m 184 1236 l 313 1236 l 399 1145 l 486 1236 l 614 1236 l 399 1011 m 314 804 l 14 804 l 14 958 l 786 958 l 786 804 l 486 804 l 486 0 l 314 0 "},"Ţ":{"ha":800,"x_min":0,"x_max":0,"o":"m 314 804 l 14 804 l 14 958 l 786 958 l 786 804 l 486 804 l 486 0 l 314 0 m 371 -354 b 237 -267 314 -354 260 -318 l 330 -228 b 375 -260 336 -245 354 -260 b 429 -207 407 -260 429 -237 b 315 -132 429 -164 383 -132 l 268 -132 l 351 -1 l 449 -1 l 397 -68 b 526 -201 481 -79 526 -129 b 371 -354 526 -288 460 -354 "},"Ț":{"ha":800,"x_min":0,"x_max":0,"o":"m 314 804 l 14 804 l 14 958 l 786 958 l 786 804 l 486 804 l 486 0 l 314 0 m 328 -72 l 500 -72 l 332 -311 l 237 -311 "},"U":{"ha":936,"x_min":0,"x_max":0,"o":"m 468 -14 b 102 374 211 -14 102 139 l 102 958 l 273 958 l 273 393 b 468 153 273 239 314 153 b 663 393 623 153 663 239 l 663 958 l 835 958 l 835 380 b 468 -14 835 139 725 -14 "},"Ú":{"ha":936,"x_min":0,"x_max":0,"o":"m 537 1238 l 713 1238 l 505 1042 l 385 1042 m 468 -14 b 102 374 211 -14 102 139 l 102 958 l 273 958 l 273 393 b 468 153 273 239 314 153 b 663 393 623 153 663 239 l 663 958 l 835 958 l 835 380 b 468 -14 835 139 725 -14 "},"Ǔ":{"ha":936,"x_min":0,"x_max":0,"o":"m 250 1236 l 378 1236 l 464 1145 l 551 1236 l 679 1236 l 464 1011 m 468 -14 b 102 374 211 -14 102 139 l 102 958 l 273 958 l 273 393 b 468 153 273 239 314 153 b 663 393 623 153 663 239 l 663 958 l 835 958 l 835 380 b 468 -14 835 139 725 -14 "},"Û":{"ha":936,"x_min":0,"x_max":0,"o":"m 464 1263 l 679 1024 l 551 1024 l 464 1122 l 378 1024 l 250 1024 m 468 -14 b 102 374 211 -14 102 139 l 102 958 l 273 958 l 273 393 b 468 153 273 239 314 153 b 663 393 623 153 663 239 l 663 958 l 835 958 l 835 380 b 468 -14 835 139 725 -14 "},"Ü":{"ha":936,"x_min":0,"x_max":0,"o":"m 275 1238 l 414 1238 l 414 1085 l 275 1085 m 515 1238 l 654 1238 l 654 1085 l 515 1085 m 468 -14 b 102 374 211 -14 102 139 l 102 958 l 273 958 l 273 393 b 468 153 273 239 314 153 b 663 393 623 153 663 239 l 663 958 l 835 958 l 835 380 b 468 -14 835 139 725 -14 "},"Ǘ":{"ha":936,"x_min":0,"x_max":0,"o":"m 537 1518 l 713 1518 l 505 1322 l 385 1322 m 275 1238 l 414 1238 l 414 1085 l 275 1085 m 515 1238 l 654 1238 l 654 1085 l 515 1085 m 468 -14 b 102 374 211 -14 102 139 l 102 958 l 273 958 l 273 393 b 468 153 273 239 314 153 b 663 393 623 153 663 239 l 663 958 l 835 958 l 835 380 b 468 -14 835 139 725 -14 "},"Ǚ":{"ha":936,"x_min":0,"x_max":0,"o":"m 250 1517 l 378 1517 l 464 1426 l 551 1517 l 679 1517 l 464 1292 m 275 1238 l 414 1238 l 414 1085 l 275 1085 m 515 1238 l 654 1238 l 654 1085 l 515 1085 m 468 -14 b 102 374 211 -14 102 139 l 102 958 l 273 958 l 273 393 b 468 153 273 239 314 153 b 663 393 623 153 663 239 l 663 958 l 835 958 l 835 380 b 468 -14 835 139 725 -14 "},"Ǜ":{"ha":936,"x_min":0,"x_max":0,"o":"m 212 1518 l 389 1518 l 542 1309 l 421 1309 m 275 1238 l 414 1238 l 414 1085 l 275 1085 m 515 1238 l 654 1238 l 654 1085 l 515 1085 m 468 -14 b 102 374 211 -14 102 139 l 102 958 l 273 958 l 273 393 b 468 153 273 239 314 153 b 663 393 623 153 663 239 l 663 958 l 835 958 l 835 380 b 468 -14 835 139 725 -14 "},"Ǖ":{"ha":936,"x_min":0,"x_max":0,"o":"m 275 1435 l 654 1435 l 654 1338 l 275 1338 m 275 1238 l 414 1238 l 414 1085 l 275 1085 m 515 1238 l 654 1238 l 654 1085 l 515 1085 m 468 -14 b 102 374 211 -14 102 139 l 102 958 l 273 958 l 273 393 b 468 153 273 239 314 153 b 663 393 623 153 663 239 l 663 958 l 835 958 l 835 380 b 468 -14 835 139 725 -14 "},"Ù":{"ha":936,"x_min":0,"x_max":0,"o":"m 212 1238 l 389 1238 l 542 1028 l 421 1028 m 468 -14 b 102 374 211 -14 102 139 l 102 958 l 273 958 l 273 393 b 468 153 273 239 314 153 b 663 393 623 153 663 239 l 663 958 l 835 958 l 835 380 b 468 -14 835 139 725 -14 "},"Ű":{"ha":936,"x_min":0,"x_max":0,"o":"m 414 1238 l 562 1238 l 382 1014 l 261 1014 m 650 1238 l 826 1238 l 618 1014 l 497 1014 m 468 -14 b 102 374 211 -14 102 139 l 102 958 l 273 958 l 273 393 b 468 153 273 239 314 153 b 663 393 623 153 663 239 l 663 958 l 835 958 l 835 380 b 468 -14 835 139 725 -14 "},"Ū":{"ha":936,"x_min":0,"x_max":0,"o":"m 275 1154 l 654 1154 l 654 1057 l 275 1057 m 468 -14 b 102 374 211 -14 102 139 l 102 958 l 273 958 l 273 393 b 468 153 273 239 314 153 b 663 393 623 153 663 239 l 663 958 l 835 958 l 835 380 b 468 -14 835 139 725 -14 "},"Ų":{"ha":936,"x_min":0,"x_max":0,"o":"m 627 12 b 534 -111 586 -12 534 -54 b 589 -170 534 -153 561 -170 b 654 -131 615 -170 636 -156 l 737 -188 b 589 -271 705 -236 659 -271 b 436 -132 501 -271 436 -216 b 486 -14 436 -81 460 -41 l 468 -14 b 102 374 211 -14 102 139 l 102 958 l 273 958 l 273 393 b 468 153 273 239 314 153 b 663 393 623 153 663 239 l 663 958 l 835 958 l 835 380 b 627 12 835 197 771 64 "},"Ů":{"ha":936,"x_min":0,"x_max":0,"o":"m 464 1004 b 309 1161 376 1004 309 1077 b 464 1317 309 1247 378 1317 b 621 1161 549 1317 621 1249 b 464 1004 621 1074 551 1004 m 464 1093 b 532 1163 505 1093 532 1122 b 464 1228 532 1200 507 1228 b 397 1163 424 1228 397 1200 b 464 1093 397 1122 427 1093 m 468 -14 b 102 374 211 -14 102 139 l 102 958 l 273 958 l 273 393 b 468 153 273 239 314 153 b 663 393 623 153 663 239 l 663 958 l 835 958 l 835 380 b 468 -14 835 139 725 -14 "},"Ũ":{"ha":936,"x_min":0,"x_max":0,"o":"m 551 1029 b 375 1126 445 1029 425 1126 b 331 1034 347 1126 331 1093 l 236 1034 b 380 1227 236 1158 292 1227 b 553 1132 477 1227 506 1132 b 595 1223 576 1132 595 1164 l 693 1223 b 551 1029 693 1099 639 1029 m 468 -14 b 102 374 211 -14 102 139 l 102 958 l 273 958 l 273 393 b 468 153 273 239 314 153 b 663 393 623 153 663 239 l 663 958 l 835 958 l 835 380 b 468 -14 835 139 725 -14 "},"V":{"ha":911,"x_min":0,"x_max":0,"o":"m 8 958 l 199 958 l 457 279 l 714 958 l 903 958 l 521 0 l 392 0 "},"W":{"ha":1358,"x_min":0,"x_max":0,"o":"m 17 958 l 196 958 l 400 253 l 612 903 l 746 903 l 958 253 l 1162 958 l 1341 958 l 1054 0 l 888 0 l 679 631 l 471 0 l 304 0 "},"Ẃ":{"ha":1358,"x_min":0,"x_max":0,"o":"m 751 1238 l 927 1238 l 719 1042 l 598 1042 m 17 958 l 196 958 l 400 253 l 612 903 l 746 903 l 958 253 l 1162 958 l 1341 958 l 1054 0 l 888 0 l 679 631 l 471 0 l 304 0 "},"Ŵ":{"ha":1358,"x_min":0,"x_max":0,"o":"m 677 1263 l 892 1024 l 765 1024 l 677 1122 l 591 1024 l 463 1024 m 17 958 l 196 958 l 400 253 l 612 903 l 746 903 l 958 253 l 1162 958 l 1341 958 l 1054 0 l 888 0 l 679 631 l 471 0 l 304 0 "},"Ẅ":{"ha":1358,"x_min":0,"x_max":0,"o":"m 488 1238 l 627 1238 l 627 1085 l 488 1085 m 729 1238 l 867 1238 l 867 1085 l 729 1085 m 17 958 l 196 958 l 400 253 l 612 903 l 746 903 l 958 253 l 1162 958 l 1341 958 l 1054 0 l 888 0 l 679 631 l 471 0 l 304 0 "},"Ẁ":{"ha":1358,"x_min":0,"x_max":0,"o":"m 426 1238 l 602 1238 l 755 1028 l 635 1028 m 17 958 l 196 958 l 400 253 l 612 903 l 746 903 l 958 253 l 1162 958 l 1341 958 l 1054 0 l 888 0 l 679 631 l 471 0 l 304 0 "},"X":{"ha":911,"x_min":0,"x_max":0,"o":"m 338 479 l 18 958 l 224 958 l 456 589 l 688 958 l 893 958 l 574 479 l 895 0 l 689 0 l 454 364 l 222 0 l 17 0 "},"Y":{"ha":895,"x_min":0,"x_max":0,"o":"m 358 374 l -1 958 l 207 958 l 446 539 l 686 958 l 896 958 l 538 374 l 538 0 l 358 0 "},"Ý":{"ha":895,"x_min":0,"x_max":0,"o":"m 517 1238 l 694 1238 l 486 1042 l 365 1042 m 358 374 l -1 958 l 207 958 l 446 539 l 686 958 l 896 958 l 538 374 l 538 0 l 358 0 "},"Ŷ":{"ha":895,"x_min":0,"x_max":0,"o":"m 444 1263 l 659 1024 l 532 1024 l 444 1122 l 358 1024 l 230 1024 m 358 374 l -1 958 l 207 958 l 446 539 l 686 958 l 896 958 l 538 374 l 538 0 l 358 0 "},"Ÿ":{"ha":895,"x_min":0,"x_max":0,"o":"m 255 1238 l 394 1238 l 394 1085 l 255 1085 m 496 1238 l 634 1238 l 634 1085 l 496 1085 m 358 374 l -1 958 l 207 958 l 446 539 l 686 958 l 896 958 l 538 374 l 538 0 l 358 0 "},"Ỳ":{"ha":895,"x_min":0,"x_max":0,"o":"m 193 1238 l 369 1238 l 522 1028 l 401 1028 m 358 374 l -1 958 l 207 958 l 446 539 l 686 958 l 896 958 l 538 374 l 538 0 l 358 0 "},"Ỹ":{"ha":895,"x_min":0,"x_max":0,"o":"m 532 1029 b 355 1126 425 1029 406 1126 b 311 1034 328 1126 311 1093 l 216 1034 b 361 1227 216 1158 272 1227 b 533 1132 457 1227 486 1132 b 575 1223 557 1132 575 1164 l 673 1223 b 532 1029 673 1099 619 1029 m 358 374 l -1 958 l 207 958 l 446 539 l 686 958 l 896 958 l 538 374 l 538 0 l 358 0 "},"Z":{"ha":863,"x_min":0,"x_max":0,"o":"m 40 119 l 575 800 l 71 800 l 71 958 l 812 958 l 812 833 l 281 155 l 812 155 l 812 0 l 40 0 "},"Ź":{"ha":863,"x_min":0,"x_max":0,"o":"m 498 1238 l 675 1238 l 467 1042 l 346 1042 m 40 119 l 575 800 l 71 800 l 71 958 l 812 958 l 812 833 l 281 155 l 812 155 l 812 0 l 40 0 "},"Ž":{"ha":863,"x_min":0,"x_max":0,"o":"m 211 1236 l 339 1236 l 425 1145 l 513 1236 l 640 1236 l 425 1011 m 40 119 l 575 800 l 71 800 l 71 958 l 812 958 l 812 833 l 281 155 l 812 155 l 812 0 l 40 0 "},"Ż":{"ha":863,"x_min":0,"x_max":0,"o":"m 339 1238 l 513 1238 l 513 1085 l 339 1085 m 40 119 l 575 800 l 71 800 l 71 958 l 812 958 l 812 833 l 281 155 l 812 155 l 812 0 l 40 0 "},"a":{"ha":720,"x_min":0,"x_max":0,"o":"m 283 -14 b 37 208 144 -14 37 66 b 307 404 37 355 155 404 l 484 404 b 350 547 484 490 437 547 b 191 452 272 547 220 501 l 64 543 b 349 692 129 632 215 692 b 642 411 533 692 642 576 l 642 0 l 505 0 l 494 97 b 283 -14 436 12 364 -14 m 307 126 b 484 285 401 126 481 200 l 317 285 b 207 203 241 285 207 245 b 307 126 207 158 243 126 "},"á":{"ha":720,"x_min":0,"x_max":0,"o":"m 414 958 l 590 958 l 382 762 l 261 762 m 283 -14 b 37 208 144 -14 37 66 b 307 404 37 355 155 404 l 484 404 b 350 547 484 490 437 547 b 191 452 272 547 220 501 l 64 543 b 349 692 129 632 215 692 b 642 411 533 692 642 576 l 642 0 l 505 0 l 494 97 b 283 -14 436 12 364 -14 m 307 126 b 484 285 401 126 481 200 l 317 285 b 207 203 241 285 207 245 b 307 126 207 158 243 126 "},"ă":{"ha":720,"x_min":0,"x_max":0,"o":"m 342 775 b 127 958 193 775 127 840 l 244 958 b 342 872 244 899 288 872 b 439 958 398 872 439 901 l 555 958 b 342 775 555 835 483 775 m 283 -14 b 37 208 144 -14 37 66 b 307 404 37 355 155 404 l 484 404 b 350 547 484 490 437 547 b 191 452 272 547 220 501 l 64 543 b 349 692 129 632 215 692 b 642 411 533 692 642 576 l 642 0 l 505 0 l 494 97 b 283 -14 436 12 364 -14 m 307 126 b 484 285 401 126 481 200 l 317 285 b 207 203 241 285 207 245 b 307 126 207 158 243 126 "},"ắ":{"ha":720,"x_min":0,"x_max":0,"o":"m 414 1239 l 590 1239 l 382 1043 l 261 1043 m 342 775 b 127 958 193 775 127 840 l 244 958 b 342 872 244 899 288 872 b 439 958 398 872 439 901 l 555 958 b 342 775 555 835 483 775 m 283 -14 b 37 208 144 -14 37 66 b 307 404 37 355 155 404 l 484 404 b 350 547 484 490 437 547 b 191 452 272 547 220 501 l 64 543 b 349 692 129 632 215 692 b 642 411 533 692 642 576 l 642 0 l 505 0 l 494 97 b 283 -14 436 12 364 -14 m 307 126 b 484 285 401 126 481 200 l 317 285 b 207 203 241 285 207 245 b 307 126 207 158 243 126 "},"ằ":{"ha":720,"x_min":0,"x_max":0,"o":"m 89 1239 l 265 1239 l 418 1029 l 298 1029 m 342 775 b 127 958 193 775 127 840 l 244 958 b 342 872 244 899 288 872 b 439 958 398 872 439 901 l 555 958 b 342 775 555 835 483 775 m 283 -14 b 37 208 144 -14 37 66 b 307 404 37 355 155 404 l 484 404 b 350 547 484 490 437 547 b 191 452 272 547 220 501 l 64 543 b 349 692 129 632 215 692 b 642 411 533 692 642 576 l 642 0 l 505 0 l 494 97 b 283 -14 436 12 364 -14 m 307 126 b 484 285 401 126 481 200 l 317 285 b 207 203 241 285 207 245 b 307 126 207 158 243 126 "},"ẵ":{"ha":720,"x_min":0,"x_max":0,"o":"m 428 1030 b 252 1128 321 1030 302 1128 b 208 1035 224 1128 208 1095 l 113 1035 b 257 1229 113 1160 168 1229 b 429 1133 353 1229 382 1133 b 471 1225 453 1133 471 1165 l 570 1225 b 428 1030 570 1100 515 1030 m 342 775 b 127 958 193 775 127 840 l 244 958 b 342 872 244 899 288 872 b 439 958 398 872 439 901 l 555 958 b 342 775 555 835 483 775 m 283 -14 b 37 208 144 -14 37 66 b 307 404 37 355 155 404 l 484 404 b 350 547 484 490 437 547 b 191 452 272 547 220 501 l 64 543 b 349 692 129 632 215 692 b 642 411 533 692 642 576 l 642 0 l 505 0 l 494 97 b 283 -14 436 12 364 -14 m 307 126 b 484 285 401 126 481 200 l 317 285 b 207 203 241 285 207 245 b 307 126 207 158 243 126 "},"ǎ":{"ha":720,"x_min":0,"x_max":0,"o":"m 126 957 l 254 957 l 340 865 l 428 957 l 555 957 l 340 732 m 283 -14 b 37 208 144 -14 37 66 b 307 404 37 355 155 404 l 484 404 b 350 547 484 490 437 547 b 191 452 272 547 220 501 l 64 543 b 349 692 129 632 215 692 b 642 411 533 692 642 576 l 642 0 l 505 0 l 494 97 b 283 -14 436 12 364 -14 m 307 126 b 484 285 401 126 481 200 l 317 285 b 207 203 241 285 207 245 b 307 126 207 158 243 126 "},"â":{"ha":720,"x_min":0,"x_max":0,"o":"m 340 983 l 555 745 l 428 745 l 340 843 l 254 745 l 126 745 m 283 -14 b 37 208 144 -14 37 66 b 307 404 37 355 155 404 l 484 404 b 350 547 484 490 437 547 b 191 452 272 547 220 501 l 64 543 b 349 692 129 632 215 692 b 642 411 533 692 642 576 l 642 0 l 505 0 l 494 97 b 283 -14 436 12 364 -14 m 307 126 b 484 285 401 126 481 200 l 317 285 b 207 203 241 285 207 245 b 307 126 207 158 243 126 "},"ấ":{"ha":720,"x_min":0,"x_max":0,"o":"m 414 1238 l 590 1238 l 382 1042 l 261 1042 m 340 983 l 555 745 l 428 745 l 340 843 l 254 745 l 126 745 m 283 -14 b 37 208 144 -14 37 66 b 307 404 37 355 155 404 l 484 404 b 350 547 484 490 437 547 b 191 452 272 547 220 501 l 64 543 b 349 692 129 632 215 692 b 642 411 533 692 642 576 l 642 0 l 505 0 l 494 97 b 283 -14 436 12 364 -14 m 307 126 b 484 285 401 126 481 200 l 317 285 b 207 203 241 285 207 245 b 307 126 207 158 243 126 "},"ầ":{"ha":720,"x_min":0,"x_max":0,"o":"m 89 1238 l 265 1238 l 418 1028 l 298 1028 m 340 983 l 555 745 l 428 745 l 340 843 l 254 745 l 126 745 m 283 -14 b 37 208 144 -14 37 66 b 307 404 37 355 155 404 l 484 404 b 350 547 484 490 437 547 b 191 452 272 547 220 501 l 64 543 b 349 692 129 632 215 692 b 642 411 533 692 642 576 l 642 0 l 505 0 l 494 97 b 283 -14 436 12 364 -14 m 307 126 b 484 285 401 126 481 200 l 317 285 b 207 203 241 285 207 245 b 307 126 207 158 243 126 "},"ẫ":{"ha":720,"x_min":0,"x_max":0,"o":"m 428 1029 b 252 1126 321 1029 302 1126 b 208 1034 224 1126 208 1093 l 113 1034 b 257 1227 113 1158 168 1227 b 429 1132 353 1227 382 1132 b 471 1223 453 1132 471 1164 l 570 1223 b 428 1029 570 1099 515 1029 m 340 983 l 555 745 l 428 745 l 340 843 l 254 745 l 126 745 m 283 -14 b 37 208 144 -14 37 66 b 307 404 37 355 155 404 l 484 404 b 350 547 484 490 437 547 b 191 452 272 547 220 501 l 64 543 b 349 692 129 632 215 692 b 642 411 533 692 642 576 l 642 0 l 505 0 l 494 97 b 283 -14 436 12 364 -14 m 307 126 b 484 285 401 126 481 200 l 317 285 b 207 203 241 285 207 245 b 307 126 207 158 243 126 "},"ä":{"ha":720,"x_min":0,"x_max":0,"o":"m 151 958 l 290 958 l 290 806 l 151 806 m 392 958 l 530 958 l 530 806 l 392 806 m 283 -14 b 37 208 144 -14 37 66 b 307 404 37 355 155 404 l 484 404 b 350 547 484 490 437 547 b 191 452 272 547 220 501 l 64 543 b 349 692 129 632 215 692 b 642 411 533 692 642 576 l 642 0 l 505 0 l 494 97 b 283 -14 436 12 364 -14 m 307 126 b 484 285 401 126 481 200 l 317 285 b 207 203 241 285 207 245 b 307 126 207 158 243 126 "},"à":{"ha":720,"x_min":0,"x_max":0,"o":"m 89 958 l 265 958 l 418 749 l 298 749 m 283 -14 b 37 208 144 -14 37 66 b 307 404 37 355 155 404 l 484 404 b 350 547 484 490 437 547 b 191 452 272 547 220 501 l 64 543 b 349 692 129 632 215 692 b 642 411 533 692 642 576 l 642 0 l 505 0 l 494 97 b 283 -14 436 12 364 -14 m 307 126 b 484 285 401 126 481 200 l 317 285 b 207 203 241 285 207 245 b 307 126 207 158 243 126 "},"ā":{"ha":720,"x_min":0,"x_max":0,"o":"m 151 875 l 530 875 l 530 778 l 151 778 m 283 -14 b 37 208 144 -14 37 66 b 307 404 37 355 155 404 l 484 404 b 350 547 484 490 437 547 b 191 452 272 547 220 501 l 64 543 b 349 692 129 632 215 692 b 642 411 533 692 642 576 l 642 0 l 505 0 l 494 97 b 283 -14 436 12 364 -14 m 307 126 b 484 285 401 126 481 200 l 317 285 b 207 203 241 285 207 245 b 307 126 207 158 243 126 "},"ą":{"ha":720,"x_min":0,"x_max":0,"o":"m 703 -222 b 554 -306 671 -271 624 -306 b 401 -167 467 -306 401 -250 b 513 0 401 -57 513 0 l 505 0 l 494 97 b 283 -14 436 12 364 -14 b 37 208 144 -14 37 66 b 307 404 37 355 155 404 l 484 404 b 350 547 484 490 437 547 b 191 452 272 547 220 501 l 64 543 b 349 692 129 632 215 692 b 642 411 533 692 642 576 l 642 0 b 500 -146 628 -4 500 -56 b 554 -204 500 -187 526 -204 b 620 -165 581 -204 602 -191 m 307 126 b 484 285 401 126 481 200 l 317 285 b 207 203 241 285 207 245 b 307 126 207 158 243 126 "},"å":{"ha":720,"x_min":0,"x_max":0,"o":"m 340 725 b 185 882 253 725 185 798 b 340 1038 185 968 254 1038 b 498 882 425 1038 498 970 b 340 725 498 794 428 725 m 340 814 b 409 884 381 814 409 843 b 340 949 409 921 384 949 b 274 884 300 949 274 921 b 340 814 274 843 303 814 m 283 -14 b 37 208 144 -14 37 66 b 307 404 37 355 155 404 l 484 404 b 350 547 484 490 437 547 b 191 452 272 547 220 501 l 64 543 b 349 692 129 632 215 692 b 642 411 533 692 642 576 l 642 0 l 505 0 l 494 97 b 283 -14 436 12 364 -14 m 307 126 b 484 285 401 126 481 200 l 317 285 b 207 203 241 285 207 245 b 307 126 207 158 243 126 "},"ã":{"ha":720,"x_min":0,"x_max":0,"o":"m 428 749 b 252 847 321 749 302 847 b 208 754 224 847 208 814 l 113 754 b 257 948 113 879 168 948 b 429 852 353 948 382 852 b 471 944 453 852 471 884 l 570 944 b 428 749 570 819 515 749 m 283 -14 b 37 208 144 -14 37 66 b 307 404 37 355 155 404 l 484 404 b 350 547 484 490 437 547 b 191 452 272 547 220 501 l 64 543 b 349 692 129 632 215 692 b 642 411 533 692 642 576 l 642 0 l 505 0 l 494 97 b 283 -14 436 12 364 -14 m 307 126 b 484 285 401 126 481 200 l 317 285 b 207 203 241 285 207 245 b 307 126 207 158 243 126 "},"ɐ":{"ha":743,"x_min":0,"x_max":0,"o":"m 392 -14 b 98 264 207 -14 98 98 l 98 675 l 228 675 l 245 578 b 464 689 304 663 374 689 b 711 472 593 689 711 606 b 433 271 711 317 585 271 l 257 271 b 397 131 257 184 298 131 b 550 224 465 131 524 176 l 676 132 b 392 -14 607 37 519 -14 m 424 390 b 542 472 498 390 542 429 b 433 549 542 517 497 549 b 257 390 339 549 260 475 "},"æ":{"ha":1137,"x_min":0,"x_max":0,"o":"m 271 -14 b 31 199 143 -14 31 68 b 301 404 31 351 150 404 l 485 404 b 338 549 485 503 443 549 b 178 463 267 549 208 507 l 61 547 b 343 689 129 640 216 689 b 570 578 444 689 524 647 b 791 686 621 643 694 686 b 1097 336 1023 686 1097 511 b 1090 285 1097 306 1090 285 l 625 285 b 789 146 637 201 690 146 b 957 208 861 146 909 158 l 1072 109 b 790 -8 991 24 903 -8 b 553 102 673 -8 599 35 b 271 -14 496 41 408 -14 m 935 404 b 778 547 922 496 875 547 b 627 404 685 547 639 486 m 297 122 b 485 285 397 122 473 205 l 311 285 b 186 200 233 285 186 249 b 297 122 186 147 231 122 "},"ǣ":{"ha":1145,"x_min":0,"x_max":0,"o":"m 382 875 l 761 875 l 761 778 l 382 778 m 278 -14 b 37 199 150 -14 37 68 b 309 404 37 351 157 404 l 492 404 b 345 549 492 503 450 549 b 184 463 273 549 215 507 l 68 547 b 350 689 136 640 224 689 b 576 578 452 689 530 647 b 799 686 628 643 701 686 b 1104 336 1031 686 1104 511 b 1097 285 1104 318 1101 297 l 632 285 b 796 146 644 201 697 146 b 964 208 868 146 917 158 l 1079 109 b 798 -8 999 24 909 -8 b 559 102 681 -8 606 35 b 278 -14 503 41 415 -14 m 942 404 b 785 547 929 496 882 547 b 633 404 692 547 646 486 m 304 122 b 492 285 404 122 481 205 l 318 285 b 193 200 240 285 193 249 b 304 122 193 147 237 122 "},"b":{"ha":798,"x_min":0,"x_max":0,"o":"m 464 -14 b 271 68 393 -14 318 9 l 271 0 l 100 0 l 100 958 l 271 958 l 271 610 b 461 692 318 668 389 692 b 754 339 652 692 754 528 b 464 -14 754 151 652 -14 m 422 139 b 587 339 536 139 587 227 b 422 542 587 452 536 542 b 256 339 309 542 256 453 b 422 139 256 225 309 139 "},"c":{"ha":681,"x_min":0,"x_max":0,"o":"m 367 -14 b 39 338 146 -14 39 158 b 366 692 39 515 144 692 b 659 492 500 692 607 627 l 501 431 b 366 542 484 496 433 542 b 207 338 252 542 207 439 b 366 136 207 235 250 136 b 501 244 432 136 484 180 l 652 187 b 367 -14 607 61 501 -14 "},"ć":{"ha":681,"x_min":0,"x_max":0,"o":"m 437 958 l 614 958 l 406 762 l 285 762 m 367 -14 b 39 338 146 -14 39 158 b 366 692 39 515 144 692 b 659 492 500 692 607 627 l 501 431 b 366 542 484 496 433 542 b 207 338 252 542 207 439 b 366 136 207 235 250 136 b 501 244 432 136 484 180 l 652 187 b 367 -14 607 61 501 -14 "},"č":{"ha":681,"x_min":0,"x_max":0,"o":"m 150 957 l 278 957 l 364 865 l 452 957 l 579 957 l 364 732 m 367 -14 b 39 338 146 -14 39 158 b 366 692 39 515 144 692 b 659 492 500 692 607 627 l 501 431 b 366 542 484 496 433 542 b 207 338 252 542 207 439 b 366 136 207 235 250 136 b 501 244 432 136 484 180 l 652 187 b 367 -14 607 61 501 -14 "},"ç":{"ha":681,"x_min":0,"x_max":0,"o":"m 366 136 b 501 244 432 136 484 180 l 652 187 b 407 -12 612 74 522 2 l 363 -68 b 492 -201 446 -79 492 -129 b 336 -354 492 -288 425 -354 b 203 -267 279 -354 225 -318 l 295 -228 b 340 -260 302 -245 319 -260 b 395 -207 372 -260 395 -237 b 281 -132 395 -164 349 -132 l 233 -132 l 311 -9 b 39 338 128 16 39 174 b 366 692 39 515 144 692 b 659 492 500 692 607 627 l 501 431 b 366 542 484 496 433 542 b 207 338 252 542 207 439 b 366 136 207 235 250 136 "},"ċ":{"ha":681,"x_min":0,"x_max":0,"o":"m 278 958 l 452 958 l 452 806 l 278 806 m 367 -14 b 39 338 146 -14 39 158 b 366 692 39 515 144 692 b 659 492 500 692 607 627 l 501 431 b 366 542 484 496 433 542 b 207 338 252 542 207 439 b 366 136 207 235 250 136 b 501 244 432 136 484 180 l 652 187 b 367 -14 607 61 501 -14 "},"d":{"ha":794,"x_min":0,"x_max":0,"o":"m 694 958 l 694 0 l 541 0 l 533 76 b 336 -14 486 12 412 -14 b 43 339 146 -14 43 150 b 334 692 43 526 146 692 b 526 610 404 692 479 668 l 526 958 m 376 136 b 541 339 490 136 541 224 b 376 542 541 453 490 542 b 211 339 262 542 211 452 b 376 136 211 225 262 136 "},"ð":{"ha":799,"x_min":0,"x_max":0,"o":"m 434 947 b 741 385 640 826 741 651 b 397 -11 741 134 615 -11 b 37 350 158 -11 37 161 b 367 692 37 539 160 692 b 541 639 441 692 494 673 b 355 834 506 736 433 795 l 301 755 l 232 800 l 279 868 b 187 899 246 880 215 890 l 262 1028 b 361 986 297 1015 330 1001 l 407 1053 l 478 1011 l 434 947 m 389 142 b 574 351 513 142 574 240 b 389 558 574 465 509 558 b 204 350 265 558 204 460 b 389 142 204 240 265 142 "},"ď":{"ha":868,"x_min":0,"x_max":0,"o":"m 336 -14 b 43 339 146 -14 43 150 b 334 692 43 526 146 692 b 526 610 404 692 479 668 l 526 958 l 694 958 l 694 0 l 526 0 l 526 68 b 336 -14 479 9 408 -14 m 847 958 l 1021 958 l 867 650 l 770 650 m 376 136 b 541 339 490 136 541 224 b 376 542 541 453 490 542 b 211 339 262 542 211 452 b 376 136 211 225 262 136 "},"đ":{"ha":794,"x_min":0,"x_max":0,"o":"m 783 772 l 694 772 l 694 0 l 541 0 l 533 76 b 336 -14 486 12 412 -14 b 43 339 146 -14 43 150 b 334 692 43 526 146 692 b 526 610 404 692 479 668 l 526 772 l 353 772 l 353 884 l 526 884 l 526 958 l 694 958 l 694 884 l 783 884 m 376 136 b 541 339 490 136 541 224 b 376 542 541 453 490 542 b 211 339 262 542 211 452 b 376 136 211 225 262 136 "},"ǳ":{"ha":1475,"x_min":0,"x_max":0,"o":"m 526 958 l 694 958 l 694 0 l 541 0 l 533 76 b 336 -14 486 12 412 -14 b 43 339 146 -14 43 150 b 334 692 43 526 146 692 b 526 610 404 692 479 668 m 1428 559 l 1060 139 l 1428 139 l 1428 0 l 830 0 l 830 110 l 1213 539 l 850 539 l 850 677 l 1428 677 m 376 136 b 541 339 490 136 541 224 b 376 542 541 453 490 542 b 211 339 262 542 211 452 b 376 136 211 225 262 136 "},"ǆ":{"ha":1475,"x_min":0,"x_max":0,"o":"m 526 958 l 694 958 l 694 0 l 541 0 l 533 76 b 336 -14 486 12 412 -14 b 43 339 146 -14 43 150 b 334 692 43 526 146 692 b 526 610 404 692 479 668 m 1128 732 l 913 957 l 1042 957 l 1128 865 l 1215 957 l 1343 957 m 1428 559 l 1060 139 l 1428 139 l 1428 0 l 830 0 l 830 110 l 1213 539 l 850 539 l 850 677 l 1428 677 m 376 136 b 541 339 490 136 541 224 b 376 542 541 453 490 542 b 211 339 262 542 211 452 b 376 136 211 225 262 136 "},"e":{"ha":724,"x_min":0,"x_max":0,"o":"m 380 -14 b 37 336 147 -14 37 154 b 370 692 37 513 140 692 b 684 350 607 692 684 501 b 677 285 684 322 681 294 l 212 285 b 382 136 227 196 275 136 b 545 208 443 136 497 155 l 659 109 b 380 -14 585 26 494 -14 m 521 404 b 368 553 510 501 454 553 b 212 404 271 553 228 489 "},"é":{"ha":724,"x_min":0,"x_max":0,"o":"m 429 958 l 605 958 l 397 762 l 276 762 m 380 -14 b 37 336 147 -14 37 154 b 370 692 37 513 140 692 b 684 350 607 692 684 501 b 677 285 684 322 681 294 l 212 285 b 382 136 227 196 275 136 b 545 208 443 136 497 155 l 659 109 b 380 -14 585 26 494 -14 m 521 404 b 368 553 510 501 454 553 b 212 404 271 553 228 489 "},"ě":{"ha":724,"x_min":0,"x_max":0,"o":"m 141 957 l 269 957 l 355 865 l 443 957 l 570 957 l 355 732 m 380 -14 b 37 336 147 -14 37 154 b 370 692 37 513 140 692 b 684 350 607 692 684 501 b 677 285 684 322 681 294 l 212 285 b 382 136 227 196 275 136 b 545 208 443 136 497 155 l 659 109 b 380 -14 585 26 494 -14 m 521 404 b 368 553 510 501 454 553 b 212 404 271 553 228 489 "},"ê":{"ha":724,"x_min":0,"x_max":0,"o":"m 355 983 l 570 745 l 443 745 l 355 843 l 269 745 l 141 745 m 380 -14 b 37 336 147 -14 37 154 b 370 692 37 513 140 692 b 684 350 607 692 684 501 b 677 285 684 322 681 294 l 212 285 b 382 136 227 196 275 136 b 545 208 443 136 497 155 l 659 109 b 380 -14 585 26 494 -14 m 521 404 b 368 553 510 501 454 553 b 212 404 271 553 228 489 "},"ế":{"ha":724,"x_min":0,"x_max":0,"o":"m 429 1238 l 605 1238 l 397 1042 l 276 1042 m 355 983 l 570 745 l 443 745 l 355 843 l 269 745 l 141 745 m 380 -14 b 37 336 147 -14 37 154 b 370 692 37 513 140 692 b 684 350 607 692 684 501 b 677 285 684 322 681 294 l 212 285 b 382 136 227 196 275 136 b 545 208 443 136 497 155 l 659 109 b 380 -14 585 26 494 -14 m 521 404 b 368 553 510 501 454 553 b 212 404 271 553 228 489 "},"ề":{"ha":724,"x_min":0,"x_max":0,"o":"m 104 1238 l 280 1238 l 433 1028 l 313 1028 m 355 983 l 570 745 l 443 745 l 355 843 l 269 745 l 141 745 m 380 -14 b 37 336 147 -14 37 154 b 370 692 37 513 140 692 b 684 350 607 692 684 501 b 677 285 684 322 681 294 l 212 285 b 382 136 227 196 275 136 b 545 208 443 136 497 155 l 659 109 b 380 -14 585 26 494 -14 m 521 404 b 368 553 510 501 454 553 b 212 404 271 553 228 489 "},"ễ":{"ha":724,"x_min":0,"x_max":0,"o":"m 443 1029 b 267 1126 336 1029 317 1126 b 222 1034 239 1126 222 1093 l 127 1034 b 272 1227 127 1158 183 1227 b 444 1132 368 1227 397 1132 b 486 1223 468 1132 486 1164 l 585 1223 b 443 1029 585 1099 530 1029 m 355 983 l 570 745 l 443 745 l 355 843 l 269 745 l 141 745 m 380 -14 b 37 336 147 -14 37 154 b 370 692 37 513 140 692 b 684 350 607 692 684 501 b 677 285 684 322 681 294 l 212 285 b 382 136 227 196 275 136 b 545 208 443 136 497 155 l 659 109 b 380 -14 585 26 494 -14 m 521 404 b 368 553 510 501 454 553 b 212 404 271 553 228 489 "},"ë":{"ha":724,"x_min":0,"x_max":0,"o":"m 166 958 l 305 958 l 305 806 l 166 806 m 407 958 l 545 958 l 545 806 l 407 806 m 380 -14 b 37 336 147 -14 37 154 b 370 692 37 513 140 692 b 684 350 607 692 684 501 b 677 285 684 322 681 294 l 212 285 b 382 136 227 196 275 136 b 545 208 443 136 497 155 l 659 109 b 380 -14 585 26 494 -14 m 521 404 b 368 553 510 501 454 553 b 212 404 271 553 228 489 "},"ė":{"ha":724,"x_min":0,"x_max":0,"o":"m 269 958 l 443 958 l 443 806 l 269 806 m 380 -14 b 37 336 147 -14 37 154 b 370 692 37 513 140 692 b 684 350 607 692 684 501 b 677 285 684 322 681 294 l 212 285 b 382 136 227 196 275 136 b 545 208 443 136 497 155 l 659 109 b 380 -14 585 26 494 -14 m 521 404 b 368 553 510 501 454 553 b 212 404 271 553 228 489 "},"è":{"ha":724,"x_min":0,"x_max":0,"o":"m 104 958 l 280 958 l 433 749 l 313 749 m 380 -14 b 37 336 147 -14 37 154 b 370 692 37 513 140 692 b 684 350 607 692 684 501 b 677 285 684 322 681 294 l 212 285 b 382 136 227 196 275 136 b 545 208 443 136 497 155 l 659 109 b 380 -14 585 26 494 -14 m 521 404 b 368 553 510 501 454 553 b 212 404 271 553 228 489 "},"ē":{"ha":724,"x_min":0,"x_max":0,"o":"m 166 875 l 545 875 l 545 778 l 166 778 m 380 -14 b 37 336 147 -14 37 154 b 370 692 37 513 140 692 b 684 350 607 692 684 501 b 677 285 684 322 681 294 l 212 285 b 382 136 227 196 275 136 b 545 208 443 136 497 155 l 659 109 b 380 -14 585 26 494 -14 m 521 404 b 368 553 510 501 454 553 b 212 404 271 553 228 489 "},"ę":{"ha":724,"x_min":0,"x_max":0,"o":"m 684 350 b 677 285 684 322 681 294 l 212 285 b 382 136 227 196 275 136 b 545 208 443 136 497 155 l 659 109 b 501 4 613 58 561 23 b 416 -114 462 -20 416 -60 b 471 -172 416 -155 443 -172 b 536 -134 497 -172 518 -159 l 619 -191 b 471 -274 587 -239 541 -274 b 318 -135 383 -274 318 -218 b 371 -14 318 -82 344 -41 b 37 336 144 -9 37 157 b 370 692 37 513 140 692 b 684 350 607 692 684 501 m 521 404 b 368 553 510 501 454 553 b 212 404 271 553 228 489 "},"ɘ":{"ha":717,"x_min":0,"x_max":0,"o":"m 342 -8 b 60 109 229 -8 139 24 l 174 208 b 343 146 222 158 269 146 b 505 285 441 146 494 201 l 40 285 b 35 336 37 294 35 317 b 354 686 35 511 107 686 b 681 335 575 686 681 513 b 342 -8 681 154 568 -8 m 505 404 b 354 547 492 486 446 547 b 197 404 256 547 208 496 "},"ẽ":{"ha":724,"x_min":0,"x_max":0,"o":"m 443 749 b 267 847 336 749 317 847 b 222 754 239 847 222 814 l 127 754 b 272 948 127 879 183 948 b 444 852 368 948 397 852 b 486 944 468 852 486 884 l 585 944 b 443 749 585 819 530 749 m 380 -14 b 37 336 147 -14 37 154 b 370 692 37 513 140 692 b 684 350 607 692 684 501 b 677 285 684 322 681 294 l 212 285 b 382 136 227 196 275 136 b 545 208 443 136 497 155 l 659 109 b 380 -14 585 26 494 -14 m 521 404 b 368 553 510 501 454 553 b 212 404 271 553 228 489 "},"ǝ":{"ha":717,"x_min":0,"x_max":0,"o":"m 354 -8 b 35 342 107 -8 35 167 b 40 393 35 372 40 393 l 505 393 b 343 532 494 476 441 532 b 174 469 269 532 222 519 l 60 570 b 342 686 139 654 229 686 b 681 343 568 686 681 524 b 354 -8 681 165 575 -8 m 354 131 b 505 273 446 131 492 192 l 197 273 b 354 131 208 182 256 131 "},"ə":{"ha":717,"x_min":0,"x_max":0,"o":"m 354 -8 b 35 342 107 -8 35 167 b 40 393 35 372 40 393 l 505 393 b 343 532 494 476 441 532 b 174 469 269 532 222 519 l 60 570 b 342 686 139 654 229 686 b 681 343 568 686 681 524 b 354 -8 681 165 575 -8 m 354 131 b 505 273 446 131 492 192 l 197 273 b 354 131 208 182 256 131 "},"f":{"ha":467,"x_min":0,"x_max":0,"o":"m 138 539 l 14 539 l 14 677 l 139 677 l 139 768 b 355 972 139 900 241 972 b 478 945 400 972 441 961 l 424 808 b 371 825 408 818 389 825 b 309 751 338 825 309 804 l 309 677 l 467 677 l 467 539 l 309 539 l 309 0 l 138 0 "},"g":{"ha":711,"x_min":0,"x_max":0,"o":"m 408 106 b 672 -94 536 89 672 61 b 372 -321 672 -248 541 -321 b 56 -79 172 -321 56 -218 b 58 -50 56 -64 57 -57 l 129 14 b 62 147 89 41 62 82 b 125 287 62 208 85 252 b 69 443 90 330 69 383 b 347 692 69 590 197 692 b 507 648 406 692 462 676 l 611 737 l 697 632 l 599 553 b 628 435 618 519 628 479 b 353 187 628 283 501 187 b 224 214 306 187 262 197 b 204 178 210 205 204 193 b 408 106 204 122 288 121 m 353 564 b 240 441 281 564 240 513 b 353 322 240 372 279 322 b 464 441 427 322 464 372 b 353 564 464 513 425 564 m 374 -191 b 515 -114 460 -191 515 -163 b 350 -45 515 -64 457 -57 b 229 -26 312 -40 269 -36 l 195 -83 b 374 -191 204 -155 277 -191 "},"ğ":{"ha":711,"x_min":0,"x_max":0,"o":"m 345 775 b 130 958 195 775 130 840 l 247 958 b 345 872 247 899 290 872 b 441 958 401 872 441 901 l 558 958 b 345 775 558 835 486 775 m 408 106 b 672 -94 536 89 672 61 b 372 -321 672 -248 541 -321 b 56 -79 172 -321 56 -218 b 58 -50 56 -64 57 -57 l 129 14 b 62 147 89 41 62 82 b 125 287 62 208 85 252 b 69 443 90 330 69 383 b 347 692 69 590 197 692 b 507 648 406 692 462 676 l 611 737 l 697 632 l 599 553 b 628 435 618 519 628 479 b 353 187 628 283 501 187 b 224 214 306 187 262 197 b 204 178 210 205 204 193 b 408 106 204 122 288 121 m 353 564 b 240 441 281 564 240 513 b 353 322 240 372 279 322 b 464 441 427 322 464 372 b 353 564 464 513 425 564 m 374 -191 b 515 -114 460 -191 515 -163 b 350 -45 515 -64 457 -57 b 229 -26 312 -40 269 -36 l 195 -83 b 374 -191 204 -155 277 -191 "},"ģ":{"ha":711,"x_min":0,"x_max":0,"o":"m 418 759 l 245 759 l 414 972 l 509 972 m 408 106 b 672 -94 536 89 672 61 b 372 -321 672 -248 541 -321 b 56 -79 172 -321 56 -218 b 58 -50 56 -64 57 -57 l 129 14 b 62 147 89 41 62 82 b 125 287 62 208 85 252 b 69 443 90 330 69 383 b 347 692 69 590 197 692 b 507 648 406 692 462 676 l 611 737 l 697 632 l 599 553 b 628 435 618 519 628 479 b 353 187 628 283 501 187 b 224 214 306 187 262 197 b 204 178 210 205 204 193 b 408 106 204 122 288 121 m 353 564 b 240 441 281 564 240 513 b 353 322 240 372 279 322 b 464 441 427 322 464 372 b 353 564 464 513 425 564 m 374 -191 b 515 -114 460 -191 515 -163 b 350 -45 515 -64 457 -57 b 229 -26 312 -40 269 -36 l 195 -83 b 374 -191 204 -155 277 -191 "},"ġ":{"ha":711,"x_min":0,"x_max":0,"o":"m 431 806 l 257 806 l 257 958 l 431 958 m 408 106 b 672 -94 536 89 672 61 b 372 -321 672 -248 541 -321 b 56 -79 172 -321 56 -218 b 58 -50 56 -64 57 -57 l 129 14 b 62 147 89 41 62 82 b 125 287 62 208 85 252 b 69 443 90 330 69 383 b 347 692 69 590 197 692 b 507 648 406 692 462 676 l 611 737 l 697 632 l 599 553 b 628 435 618 519 628 479 b 353 187 628 283 501 187 b 224 214 306 187 262 197 b 204 178 210 205 204 193 b 408 106 204 122 288 121 m 353 564 b 240 441 281 564 240 513 b 353 322 240 372 279 322 b 464 441 427 322 464 372 b 353 564 464 513 425 564 m 374 -191 b 515 -114 460 -191 515 -163 b 350 -45 515 -64 457 -57 b 229 -26 312 -40 269 -36 l 195 -83 b 374 -191 204 -155 277 -191 "},"ɡ":{"ha":783,"x_min":0,"x_max":0,"o":"m 685 0 b 367 -297 685 -184 568 -297 b 65 -151 216 -297 125 -235 l 192 -60 b 370 -153 218 -107 278 -153 b 518 0 464 -153 518 -106 l 518 82 b 328 0 471 24 400 0 b 35 346 138 0 35 164 b 325 692 35 526 138 692 b 518 610 396 692 471 668 l 518 677 l 685 677 l 685 0 m 368 153 b 532 346 482 153 532 237 b 368 542 532 453 482 542 b 203 346 254 542 203 452 b 368 153 203 239 254 153 "},"h":{"ha":793,"x_min":0,"x_max":0,"o":"m 100 958 l 268 958 l 268 599 b 464 692 322 665 397 692 b 714 407 642 692 714 549 l 714 0 l 546 0 l 546 386 b 424 542 546 469 524 542 b 268 343 318 542 268 456 l 268 0 l 100 0 "},"ħ":{"ha":793,"x_min":0,"x_max":0,"o":"m 464 692 b 714 407 642 692 714 549 l 714 0 l 546 0 l 546 386 b 424 542 546 469 524 542 b 268 343 318 542 268 456 l 268 0 l 100 0 l 100 751 l 1 751 l 1 863 l 100 863 l 100 958 l 268 958 l 268 863 l 431 863 l 431 751 l 268 751 l 268 599 b 464 692 322 665 397 692 "},"i":{"ha":361,"x_min":0,"x_max":0,"o":"m 94 958 l 267 958 l 267 806 l 94 806 m 98 677 l 262 677 l 262 0 l 98 0 "},"ı":{"ha":350,"x_min":0,"x_max":0,"o":"m 98 677 l 252 677 l 252 0 l 98 0 "},"í":{"ha":350,"x_min":0,"x_max":0,"o":"m 247 958 l 423 958 l 215 762 l 94 762 m 98 677 l 252 677 l 252 0 l 98 0 "},"ǐ":{"ha":350,"x_min":0,"x_max":0,"o":"m -41 957 l 87 957 l 174 865 l 261 957 l 389 957 l 174 732 m 98 677 l 252 677 l 252 0 l 98 0 "},"î":{"ha":350,"x_min":0,"x_max":0,"o":"m 174 983 l 389 745 l 261 745 l 174 843 l 87 745 l -41 745 m 98 677 l 252 677 l 252 0 l 98 0 "},"ï":{"ha":350,"x_min":0,"x_max":0,"o":"m -16 958 l 123 958 l 123 806 l -16 806 m 225 958 l 363 958 l 363 806 l 225 806 m 98 677 l 252 677 l 252 0 l 98 0 "},"ì":{"ha":350,"x_min":0,"x_max":0,"o":"m -78 958 l 98 958 l 252 749 l 131 749 m 98 677 l 252 677 l 252 0 l 98 0 "},"ī":{"ha":350,"x_min":0,"x_max":0,"o":"m -16 875 l 363 875 l 363 778 l -16 778 m 98 677 l 252 677 l 252 0 l 98 0 "},"į":{"ha":350,"x_min":0,"x_max":0,"o":"m 261 806 l 87 806 l 87 958 l 261 958 m 313 -222 b 164 -306 281 -271 234 -306 b 12 -167 77 -306 12 -250 b 123 0 12 -57 123 0 l 98 0 l 98 677 l 252 677 l 252 0 b 110 -146 238 -4 110 -56 b 164 -204 110 -187 136 -204 b 230 -165 191 -204 212 -191 "},"ĩ":{"ha":350,"x_min":0,"x_max":0,"o":"m 261 749 b 85 847 155 749 135 847 b 41 754 57 847 41 814 l -54 754 b 90 948 -54 879 1 948 b 262 852 186 948 216 852 b 304 944 286 852 304 884 l 403 944 b 261 749 403 819 349 749 m 98 677 l 252 677 l 252 0 l 98 0 "},"j":{"ha":367,"x_min":0,"x_max":0,"o":"m 97 958 l 272 958 l 272 806 l 97 806 m 71 -297 b -47 -275 29 -297 -20 -286 l -5 -132 b 54 -147 18 -142 39 -147 b 102 -83 86 -147 102 -126 l 102 677 l 268 677 l 268 -71 b 71 -297 268 -195 207 -297 "},"ȷ":{"ha":359,"x_min":0,"x_max":0,"o":"m 60 -297 b -53 -275 20 -297 -28 -285 l -16 -139 b 56 -149 7 -144 35 -149 b 102 -83 93 -149 102 -126 l 102 677 l 260 677 l 260 -78 b 60 -297 260 -200 197 -297 "},"k":{"ha":758,"x_min":0,"x_max":0,"o":"m 100 958 l 265 958 l 265 396 l 521 677 l 736 677 l 482 415 l 764 0 l 568 0 l 370 314 l 265 199 l 265 0 l 100 0 "},"ķ":{"ha":758,"x_min":0,"x_max":0,"o":"m 100 958 l 265 958 l 265 396 l 521 677 l 736 677 l 482 415 l 764 0 l 568 0 l 370 314 l 265 199 l 265 0 l 100 0 m 345 -72 l 517 -72 l 349 -311 l 253 -311 "},"ĸ":{"ha":757,"x_min":0,"x_max":0,"o":"m 98 677 l 264 677 l 264 396 l 519 677 l 734 677 l 481 415 l 762 0 l 567 0 l 368 314 l 264 199 l 264 0 l 98 0 "},"l":{"ha":389,"x_min":0,"x_max":0,"o":"m 236 -14 b 94 135 158 -14 94 16 l 94 958 l 260 958 l 260 180 b 314 135 260 149 281 135 b 359 139 323 135 342 136 l 359 0 b 236 -14 325 -7 275 -14 "},"ĺ":{"ha":389,"x_min":0,"x_max":0,"o":"m 261 1238 l 437 1238 l 229 1042 l 109 1042 m 236 -14 b 94 135 158 -14 94 16 l 94 958 l 260 958 l 260 180 b 314 135 260 149 281 135 b 359 139 323 135 342 136 l 359 0 b 236 -14 325 -7 275 -14 "},"ľ":{"ha":452,"x_min":0,"x_max":0,"o":"m 240 -14 b 94 135 158 -14 94 14 l 94 958 l 260 958 l 260 180 b 318 135 260 149 279 135 b 359 139 322 135 342 136 l 359 0 b 240 -14 325 -7 273 -14 m 431 958 l 604 958 l 450 650 l 353 650 "},"ļ":{"ha":389,"x_min":0,"x_max":0,"o":"m 236 -14 b 94 135 158 -14 94 16 l 94 958 l 260 958 l 260 180 b 314 135 260 149 281 135 b 359 139 323 135 342 136 l 359 0 b 236 -14 325 -7 275 -14 m 168 -72 l 340 -72 l 172 -311 l 77 -311 "},"ǉ":{"ha":755,"x_min":0,"x_max":0,"o":"m 236 -14 b 94 135 158 -14 94 16 l 94 958 l 260 958 l 260 180 b 314 135 260 149 281 135 b 359 139 323 135 342 136 l 359 0 b 236 -14 325 -7 275 -14 m 486 958 l 661 958 l 661 806 l 486 806 m 459 -297 b 341 -275 418 -297 369 -286 l 383 -132 b 443 -147 407 -142 427 -147 b 490 -83 475 -147 490 -126 l 490 677 l 656 677 l 656 -71 b 459 -297 656 -195 595 -297 "},"ł":{"ha":389,"x_min":0,"x_max":0,"o":"m 314 135 b 359 139 323 135 342 136 l 359 0 b 236 -14 325 -7 275 -14 b 94 135 158 -14 94 16 l 94 264 l 49 213 l 49 368 l 94 419 l 94 958 l 260 958 l 260 606 l 331 686 l 331 530 l 260 450 l 260 180 b 314 135 260 149 281 135 "},"m":{"ha":1182,"x_min":0,"x_max":0,"o":"m 98 677 l 265 677 l 265 607 b 437 692 310 668 374 692 b 628 572 519 692 583 653 b 852 692 681 656 765 692 b 1103 407 1026 692 1103 550 l 1103 0 l 935 0 l 935 386 b 825 538 935 469 911 538 b 684 372 736 538 684 463 l 684 0 l 515 0 l 515 389 b 408 538 515 471 493 538 b 265 372 318 538 265 463 l 265 0 l 98 0 "},"n":{"ha":787,"x_min":0,"x_max":0,"o":"m 98 677 l 262 677 l 262 599 b 463 692 317 665 396 692 b 708 407 640 692 708 549 l 708 0 l 545 0 l 545 386 b 415 539 545 475 500 539 b 262 371 322 539 262 489 l 262 0 l 98 0 "},"ń":{"ha":787,"x_min":0,"x_max":0,"o":"m 471 958 l 647 958 l 439 762 l 318 762 m 98 677 l 262 677 l 262 599 b 463 692 317 665 396 692 b 708 407 640 692 708 549 l 708 0 l 545 0 l 545 386 b 415 539 545 475 500 539 b 262 371 322 539 262 489 l 262 0 l 98 0 "},"ň":{"ha":787,"x_min":0,"x_max":0,"o":"m 183 957 l 311 957 l 397 865 l 485 957 l 612 957 l 397 732 m 98 677 l 262 677 l 262 599 b 463 692 317 665 396 692 b 708 407 640 692 708 549 l 708 0 l 545 0 l 545 386 b 415 539 545 475 500 539 b 262 371 322 539 262 489 l 262 0 l 98 0 "},"ņ":{"ha":787,"x_min":0,"x_max":0,"o":"m 98 677 l 262 677 l 262 599 b 463 692 317 665 396 692 b 708 407 640 692 708 549 l 708 0 l 545 0 l 545 386 b 415 539 545 475 500 539 b 262 371 322 539 262 489 l 262 0 l 98 0 m 327 -72 l 499 -72 l 331 -311 l 235 -311 "},"ŋ":{"ha":785,"x_min":0,"x_max":0,"o":"m 410 -114 l 461 -114 b 543 -1 542 -114 543 -50 l 543 387 b 432 542 543 472 521 542 b 260 372 338 542 260 460 l 260 0 l 98 0 l 98 677 l 260 677 l 260 591 b 458 689 311 663 390 689 b 704 408 633 689 704 550 l 704 -45 b 492 -250 704 -94 703 -250 l 410 -250 "},"ǌ":{"ha":1154,"x_min":0,"x_max":0,"o":"m 884 958 l 1059 958 l 1059 806 l 884 806 m 98 677 l 262 677 l 262 599 b 463 692 317 665 396 692 b 708 407 640 692 708 549 l 708 0 l 545 0 l 545 386 b 415 539 545 475 500 539 b 262 371 322 539 262 489 l 262 0 l 98 0 m 858 -297 b 740 -275 817 -297 768 -286 l 782 -132 b 842 -147 806 -142 826 -147 b 889 -83 873 -147 889 -126 l 889 677 l 1055 677 l 1055 -71 b 858 -297 1055 -195 994 -297 "},"ñ":{"ha":787,"x_min":0,"x_max":0,"o":"m 485 749 b 309 847 378 749 359 847 b 264 754 281 847 264 814 l 170 754 b 314 948 170 879 225 948 b 486 852 410 948 439 852 b 528 944 510 852 528 884 l 627 944 b 485 749 627 819 572 749 m 98 677 l 262 677 l 262 599 b 463 692 317 665 396 692 b 708 407 640 692 708 549 l 708 0 l 545 0 l 545 386 b 415 539 545 475 500 539 b 262 371 322 539 262 489 l 262 0 l 98 0 "},"o":{"ha":765,"x_min":0,"x_max":0,"o":"m 382 -14 b 35 340 172 -14 35 149 b 382 692 35 532 172 692 b 729 340 591 692 729 532 b 382 -14 729 149 591 -14 m 382 129 b 557 340 507 129 557 229 b 382 549 557 452 507 549 b 207 340 257 549 207 452 b 382 129 207 229 257 129 "},"ó":{"ha":765,"x_min":0,"x_max":0,"o":"m 454 958 l 630 958 l 422 762 l 301 762 m 382 -14 b 35 340 172 -14 35 149 b 382 692 35 532 172 692 b 729 340 591 692 729 532 b 382 -14 729 149 591 -14 m 382 129 b 557 340 507 129 557 229 b 382 549 557 452 507 549 b 207 340 257 549 207 452 b 382 129 207 229 257 129 "},"ǒ":{"ha":765,"x_min":0,"x_max":0,"o":"m 166 957 l 294 957 l 380 865 l 468 957 l 595 957 l 380 732 m 382 -14 b 35 340 172 -14 35 149 b 382 692 35 532 172 692 b 729 340 591 692 729 532 b 382 -14 729 149 591 -14 m 382 129 b 557 340 507 129 557 229 b 382 549 557 452 507 549 b 207 340 257 549 207 452 b 382 129 207 229 257 129 "},"ô":{"ha":765,"x_min":0,"x_max":0,"o":"m 380 983 l 595 745 l 468 745 l 380 843 l 294 745 l 166 745 m 382 -14 b 35 340 172 -14 35 149 b 382 692 35 532 172 692 b 729 340 591 692 729 532 b 382 -14 729 149 591 -14 m 382 129 b 557 340 507 129 557 229 b 382 549 557 452 507 549 b 207 340 257 549 207 452 b 382 129 207 229 257 129 "},"ố":{"ha":765,"x_min":0,"x_max":0,"o":"m 454 1238 l 630 1238 l 422 1042 l 301 1042 m 380 983 l 595 745 l 468 745 l 380 843 l 294 745 l 166 745 m 382 -14 b 35 340 172 -14 35 149 b 382 692 35 532 172 692 b 729 340 591 692 729 532 b 382 -14 729 149 591 -14 m 382 129 b 557 340 507 129 557 229 b 382 549 557 452 507 549 b 207 340 257 549 207 452 b 382 129 207 229 257 129 "},"ồ":{"ha":765,"x_min":0,"x_max":0,"o":"m 129 1238 l 305 1238 l 458 1028 l 338 1028 m 380 983 l 595 745 l 468 745 l 380 843 l 294 745 l 166 745 m 382 -14 b 35 340 172 -14 35 149 b 382 692 35 532 172 692 b 729 340 591 692 729 532 b 382 -14 729 149 591 -14 m 382 129 b 557 340 507 129 557 229 b 382 549 557 452 507 549 b 207 340 257 549 207 452 b 382 129 207 229 257 129 "},"ỗ":{"ha":765,"x_min":0,"x_max":0,"o":"m 468 1029 b 292 1126 361 1029 342 1126 b 248 1034 264 1126 248 1093 l 153 1034 b 297 1227 153 1158 208 1227 b 469 1132 393 1227 422 1132 b 511 1223 493 1132 511 1164 l 610 1223 b 468 1029 610 1099 555 1029 m 380 983 l 595 745 l 468 745 l 380 843 l 294 745 l 166 745 m 382 -14 b 35 340 172 -14 35 149 b 382 692 35 532 172 692 b 729 340 591 692 729 532 b 382 -14 729 149 591 -14 m 382 129 b 557 340 507 129 557 229 b 382 549 557 452 507 549 b 207 340 257 549 207 452 b 382 129 207 229 257 129 "},"ö":{"ha":765,"x_min":0,"x_max":0,"o":"m 191 958 l 330 958 l 330 806 l 191 806 m 432 958 l 570 958 l 570 806 l 432 806 m 382 -14 b 35 340 172 -14 35 149 b 382 692 35 532 172 692 b 729 340 591 692 729 532 b 382 -14 729 149 591 -14 m 382 129 b 557 340 507 129 557 229 b 382 549 557 452 507 549 b 207 340 257 549 207 452 b 382 129 207 229 257 129 "},"ò":{"ha":765,"x_min":0,"x_max":0,"o":"m 129 958 l 305 958 l 458 749 l 338 749 m 382 -14 b 35 340 172 -14 35 149 b 382 692 35 532 172 692 b 729 340 591 692 729 532 b 382 -14 729 149 591 -14 m 382 129 b 557 340 507 129 557 229 b 382 549 557 452 507 549 b 207 340 257 549 207 452 b 382 129 207 229 257 129 "},"ő":{"ha":765,"x_min":0,"x_max":0,"o":"m 330 958 l 479 958 l 298 734 l 178 734 m 566 958 l 743 958 l 534 734 l 414 734 m 382 -14 b 35 340 172 -14 35 149 b 382 692 35 532 172 692 b 729 340 591 692 729 532 b 382 -14 729 149 591 -14 m 382 129 b 557 340 507 129 557 229 b 382 549 557 452 507 549 b 207 340 257 549 207 452 b 382 129 207 229 257 129 "},"ō":{"ha":765,"x_min":0,"x_max":0,"o":"m 191 875 l 570 875 l 570 778 l 191 778 m 382 -14 b 35 340 172 -14 35 149 b 382 692 35 532 172 692 b 729 340 591 692 729 532 b 382 -14 729 149 591 -14 m 382 129 b 557 340 507 129 557 229 b 382 549 557 452 507 549 b 207 340 257 549 207 452 b 382 129 207 229 257 129 "},"ǫ":{"ha":765,"x_min":0,"x_max":0,"o":"m 729 340 b 483 0 729 181 635 43 l 488 0 b 346 -146 474 -4 346 -56 b 400 -204 346 -187 372 -204 b 466 -165 427 -204 448 -191 l 549 -222 b 400 -306 517 -271 470 -306 b 248 -167 313 -306 248 -250 b 340 -12 248 -85 309 -33 b 35 340 154 9 35 161 b 382 692 35 532 172 692 b 729 340 591 692 729 532 m 382 129 b 557 340 507 129 557 229 b 382 549 557 452 507 549 b 207 340 257 549 207 452 b 382 129 207 229 257 129 "},"ɔ":{"ha":677,"x_min":0,"x_max":0,"o":"m 315 -14 b 22 183 180 -14 74 62 l 179 244 b 315 142 197 179 248 142 b 473 338 429 142 473 236 b 315 533 473 440 431 533 b 179 431 249 533 197 494 l 29 488 b 314 689 74 614 179 689 b 642 338 534 689 642 517 b 315 -14 642 160 536 -14 "},"ø":{"ha":765,"x_min":0,"x_max":0,"o":"m 596 622 b 729 340 680 557 729 454 b 382 -14 729 149 591 -14 b 231 18 326 -14 275 -2 l 219 -1 l 132 -1 l 167 58 b 35 340 83 123 35 227 b 382 692 35 532 172 692 b 532 661 437 692 488 680 l 543 677 l 630 677 l 596 622 m 207 340 b 248 192 207 284 220 231 l 456 534 b 382 549 435 544 410 549 b 207 340 257 549 207 452 m 382 129 b 557 340 507 129 557 229 b 515 488 557 397 544 450 l 307 144 b 382 129 328 134 353 129 "},"õ":{"ha":765,"x_min":0,"x_max":0,"o":"m 468 749 b 292 847 361 749 342 847 b 248 754 264 847 248 814 l 153 754 b 297 948 153 879 208 948 b 469 852 393 948 422 852 b 511 944 493 852 511 884 l 610 944 b 468 749 610 819 555 749 m 382 -14 b 35 340 172 -14 35 149 b 382 692 35 532 172 692 b 729 340 591 692 729 532 b 382 -14 729 149 591 -14 m 382 129 b 557 340 507 129 557 229 b 382 549 557 452 507 549 b 207 340 257 549 207 452 b 382 129 207 229 257 129 "},"œ":{"ha":1240,"x_min":0,"x_max":0,"o":"m 382 -14 b 35 336 171 -14 35 146 b 382 686 35 526 170 686 b 633 571 489 686 576 639 b 873 686 689 643 766 686 b 1196 338 1122 686 1196 510 b 1190 283 1196 302 1190 283 l 725 283 b 893 153 737 205 798 153 b 1067 225 966 153 1018 175 l 1186 119 b 895 -8 1105 35 1010 -8 b 636 104 781 -8 689 37 b 382 -14 575 29 489 -14 m 378 126 b 553 336 500 126 553 216 b 382 545 553 456 504 545 b 207 335 260 545 207 454 b 378 126 207 215 256 126 m 1026 404 b 873 542 1014 493 968 542 b 726 404 785 542 741 482 "},"p":{"ha":794,"x_min":0,"x_max":0,"o":"m 100 677 l 268 677 l 268 610 b 458 692 315 668 386 692 b 751 339 648 692 751 528 b 461 -14 751 151 648 -14 b 268 68 390 -14 315 9 l 268 -297 l 100 -297 m 418 139 b 583 339 532 139 583 225 b 418 543 583 453 532 543 b 253 339 304 543 253 453 b 418 139 253 225 304 139 "},"þ":{"ha":783,"x_min":0,"x_max":0,"o":"m 100 958 l 257 958 l 257 623 b 444 692 304 667 367 692 b 741 339 637 692 741 528 b 444 -14 741 150 637 -14 b 257 56 367 -14 302 12 l 257 -297 l 100 -297 m 416 129 b 587 339 532 129 587 220 b 416 547 587 457 532 547 b 245 339 301 547 245 457 b 416 129 245 220 301 129 "},"q":{"ha":793,"x_min":0,"x_max":0,"o":"m 526 68 b 336 -14 479 9 408 -14 b 43 339 146 -14 43 150 b 334 692 43 526 146 692 b 526 610 404 692 479 668 l 526 677 l 693 677 l 693 -297 l 526 -297 m 376 139 b 541 339 490 139 541 224 b 376 542 541 453 490 542 b 211 339 262 542 211 452 b 376 139 211 225 262 139 "},"r":{"ha":553,"x_min":0,"x_max":0,"o":"m 98 677 l 260 677 l 260 564 b 441 692 289 646 366 692 b 566 643 486 692 533 676 l 490 507 b 416 530 468 522 443 530 b 258 286 339 530 258 458 l 258 0 l 98 0 "},"ŕ":{"ha":553,"x_min":0,"x_max":0,"o":"m 366 958 l 543 958 l 334 762 l 214 762 m 98 677 l 260 677 l 260 564 b 441 692 289 646 366 692 b 566 643 486 692 533 676 l 490 507 b 416 530 468 522 443 530 b 258 286 339 530 258 458 l 258 0 l 98 0 "},"ř":{"ha":553,"x_min":0,"x_max":0,"o":"m 79 957 l 207 957 l 293 865 l 380 957 l 508 957 l 293 732 m 98 677 l 260 677 l 260 564 b 441 692 289 646 366 692 b 566 643 486 692 533 676 l 490 507 b 416 530 468 522 443 530 b 258 286 339 530 258 458 l 258 0 l 98 0 "},"ŗ":{"ha":553,"x_min":0,"x_max":0,"o":"m 98 677 l 260 677 l 260 564 b 441 692 289 646 366 692 b 566 643 486 692 533 676 l 490 507 b 416 530 468 522 443 530 b 258 286 339 530 258 458 l 258 0 l 98 0 m 109 -72 l 281 -72 l 113 -311 l 17 -311 "},"s":{"ha":616,"x_min":0,"x_max":0,"o":"m 302 -14 b 18 176 160 -14 52 72 l 150 235 b 294 123 168 186 204 123 b 404 204 371 123 404 168 b 64 481 404 318 64 241 b 315 692 64 624 184 692 b 572 545 432 692 521 636 l 444 475 b 310 561 421 517 383 561 b 222 503 256 561 222 534 b 567 212 222 400 567 461 b 302 -14 567 56 431 -14 "},"ś":{"ha":616,"x_min":0,"x_max":0,"o":"m 363 958 l 540 958 l 332 762 l 211 762 m 302 -14 b 18 176 160 -14 52 72 l 150 235 b 294 123 168 186 204 123 b 404 204 371 123 404 168 b 64 481 404 318 64 241 b 315 692 64 624 184 692 b 572 545 432 692 521 636 l 444 475 b 310 561 421 517 383 561 b 222 503 256 561 222 534 b 567 212 222 400 567 461 b 302 -14 567 56 431 -14 "},"š":{"ha":616,"x_min":0,"x_max":0,"o":"m 76 957 l 204 957 l 290 865 l 378 957 l 505 957 l 290 732 m 302 -14 b 18 176 160 -14 52 72 l 150 235 b 294 123 168 186 204 123 b 404 204 371 123 404 168 b 64 481 404 318 64 241 b 315 692 64 624 184 692 b 572 545 432 692 521 636 l 444 475 b 310 561 421 517 383 561 b 222 503 256 561 222 534 b 567 212 222 400 567 461 b 302 -14 567 56 431 -14 "},"ş":{"ha":616,"x_min":0,"x_max":0,"o":"m 222 503 b 567 212 222 400 567 461 b 380 -5 567 87 480 18 l 331 -68 b 460 -201 414 -79 460 -129 b 304 -354 460 -288 393 -354 b 171 -267 248 -354 193 -318 l 263 -228 b 309 -260 270 -245 288 -260 b 363 -207 340 -260 363 -237 b 249 -132 363 -164 317 -132 l 201 -132 l 277 -13 b 18 176 148 -3 50 78 l 150 235 b 294 123 168 186 204 123 b 404 204 371 123 404 168 b 64 481 404 318 64 241 b 315 692 64 624 184 692 b 572 545 432 692 521 636 l 444 475 b 310 561 421 517 383 561 b 222 503 256 561 222 534 "},"ș":{"ha":616,"x_min":0,"x_max":0,"o":"m 302 -14 b 18 176 160 -14 52 72 l 150 235 b 294 123 168 186 204 123 b 404 204 371 123 404 168 b 64 481 404 318 64 241 b 315 692 64 624 184 692 b 572 545 432 692 521 636 l 444 475 b 310 561 421 517 383 561 b 222 503 256 561 222 534 b 567 212 222 400 567 461 b 302 -14 567 56 431 -14 m 262 -72 l 434 -72 l 266 -311 l 170 -311 "},"ß":{"ha":804,"x_min":0,"x_max":0,"o":"m 494 -12 b 357 12 447 -12 400 -3 l 414 153 b 490 138 441 142 471 138 b 583 216 549 138 583 172 b 383 517 583 325 383 363 b 530 733 383 650 530 639 b 404 831 530 779 494 831 b 264 692 310 831 264 775 l 264 0 l 100 0 l 100 692 b 395 972 100 871 240 972 b 694 722 543 972 694 876 b 536 510 694 564 536 566 b 750 218 536 446 750 407 b 494 -12 750 82 639 -12 "},"t":{"ha":511,"x_min":0,"x_max":0,"o":"m 339 -14 b 126 187 205 -14 126 64 l 126 539 l 17 539 l 17 677 l 129 677 l 129 846 l 290 964 l 290 677 l 461 677 l 461 539 l 290 539 l 290 216 b 367 132 290 151 323 132 b 461 157 401 132 439 146 l 461 7 b 339 -14 436 -3 386 -14 "},"ŧ":{"ha":511,"x_min":0,"x_max":0,"o":"m 290 539 l 290 395 l 458 395 l 458 283 l 290 283 l 290 216 b 367 132 290 151 323 132 b 461 157 401 132 439 146 l 461 7 b 339 -14 436 -3 386 -14 b 126 187 205 -14 126 64 l 126 283 l 27 283 l 27 395 l 126 395 l 126 539 l 17 539 l 17 677 l 129 677 l 129 846 l 290 964 l 290 677 l 461 677 l 461 539 "},"ť":{"ha":515,"x_min":0,"x_max":0,"o":"m 453 1084 l 625 1084 l 457 777 l 361 777 m 325 -14 b 127 187 187 -14 127 74 l 127 528 l 18 528 l 18 677 l 131 677 l 131 846 l 286 964 l 286 677 l 463 677 l 463 528 l 286 528 l 286 189 b 349 134 286 142 317 134 b 463 157 422 134 463 157 l 463 7 b 325 -14 463 7 418 -14 "},"ţ":{"ha":511,"x_min":0,"x_max":0,"o":"m 290 539 l 290 216 b 367 132 290 151 323 132 b 461 157 401 132 439 146 l 461 7 b 376 -12 443 0 410 -8 l 332 -68 b 461 -201 416 -79 461 -129 b 306 -354 461 -288 395 -354 b 172 -267 249 -354 195 -318 l 264 -228 b 310 -260 271 -245 289 -260 b 364 -207 342 -260 364 -237 b 250 -132 364 -164 318 -132 l 203 -132 l 282 -8 b 126 187 183 11 126 83 l 126 539 l 17 539 l 17 677 l 129 677 l 129 846 l 290 964 l 290 677 l 461 677 l 461 539 "},"ț":{"ha":511,"x_min":0,"x_max":0,"o":"m 339 -14 b 126 187 205 -14 126 64 l 126 539 l 17 539 l 17 677 l 129 677 l 129 846 l 290 964 l 290 677 l 461 677 l 461 539 l 290 539 l 290 216 b 367 132 290 151 323 132 b 461 157 401 132 439 146 l 461 7 b 339 -14 436 -3 386 -14 m 263 -72 l 435 -72 l 267 -311 l 172 -311 "},"u":{"ha":791,"x_min":0,"x_max":0,"o":"m 325 -14 b 78 321 154 -14 78 117 l 78 677 l 245 677 l 245 315 b 368 136 245 204 268 136 b 525 372 446 136 525 176 l 525 677 l 693 677 l 693 0 l 525 0 l 525 79 b 325 -14 476 16 406 -14 "},"ú":{"ha":791,"x_min":0,"x_max":0,"o":"m 462 958 l 638 958 l 430 762 l 309 762 m 325 -14 b 78 321 154 -14 78 117 l 78 677 l 245 677 l 245 315 b 368 136 245 204 268 136 b 525 372 446 136 525 176 l 525 677 l 693 677 l 693 0 l 525 0 l 525 79 b 325 -14 476 16 406 -14 "},"ǔ":{"ha":791,"x_min":0,"x_max":0,"o":"m 174 957 l 302 957 l 389 865 l 476 957 l 604 957 l 389 732 m 325 -14 b 78 321 154 -14 78 117 l 78 677 l 245 677 l 245 315 b 368 136 245 204 268 136 b 525 372 446 136 525 176 l 525 677 l 693 677 l 693 0 l 525 0 l 525 79 b 325 -14 476 16 406 -14 "},"û":{"ha":791,"x_min":0,"x_max":0,"o":"m 389 983 l 604 745 l 476 745 l 389 843 l 302 745 l 174 745 m 325 -14 b 78 321 154 -14 78 117 l 78 677 l 245 677 l 245 315 b 368 136 245 204 268 136 b 525 372 446 136 525 176 l 525 677 l 693 677 l 693 0 l 525 0 l 525 79 b 325 -14 476 16 406 -14 "},"ü":{"ha":791,"x_min":0,"x_max":0,"o":"m 199 958 l 338 958 l 338 806 l 199 806 m 440 958 l 578 958 l 578 806 l 440 806 m 325 -14 b 78 321 154 -14 78 117 l 78 677 l 245 677 l 245 315 b 368 136 245 204 268 136 b 525 372 446 136 525 176 l 525 677 l 693 677 l 693 0 l 525 0 l 525 79 b 325 -14 476 16 406 -14 "},"ǘ":{"ha":791,"x_min":0,"x_max":0,"o":"m 462 1239 l 638 1239 l 430 1043 l 309 1043 m 199 958 l 338 958 l 338 806 l 199 806 m 440 958 l 578 958 l 578 806 l 440 806 m 325 -14 b 78 321 154 -14 78 117 l 78 677 l 245 677 l 245 315 b 368 136 245 204 268 136 b 525 372 446 136 525 176 l 525 677 l 693 677 l 693 0 l 525 0 l 525 79 b 325 -14 476 16 406 -14 "},"ǚ":{"ha":791,"x_min":0,"x_max":0,"o":"m 174 1238 l 302 1238 l 389 1146 l 476 1238 l 604 1238 l 389 1013 m 199 958 l 338 958 l 338 806 l 199 806 m 440 958 l 578 958 l 578 806 l 440 806 m 325 -14 b 78 321 154 -14 78 117 l 78 677 l 245 677 l 245 315 b 368 136 245 204 268 136 b 525 372 446 136 525 176 l 525 677 l 693 677 l 693 0 l 525 0 l 525 79 b 325 -14 476 16 406 -14 "},"ǜ":{"ha":791,"x_min":0,"x_max":0,"o":"m 137 1239 l 313 1239 l 467 1029 l 346 1029 m 199 958 l 338 958 l 338 806 l 199 806 m 440 958 l 578 958 l 578 806 l 440 806 m 325 -14 b 78 321 154 -14 78 117 l 78 677 l 245 677 l 245 315 b 368 136 245 204 268 136 b 525 372 446 136 525 176 l 525 677 l 693 677 l 693 0 l 525 0 l 525 79 b 325 -14 476 16 406 -14 "},"ǖ":{"ha":791,"x_min":0,"x_max":0,"o":"m 199 1156 l 578 1156 l 578 1059 l 199 1059 m 199 958 l 338 958 l 338 806 l 199 806 m 440 958 l 578 958 l 578 806 l 440 806 m 325 -14 b 78 321 154 -14 78 117 l 78 677 l 245 677 l 245 315 b 368 136 245 204 268 136 b 525 372 446 136 525 176 l 525 677 l 693 677 l 693 0 l 525 0 l 525 79 b 325 -14 476 16 406 -14 "},"ù":{"ha":791,"x_min":0,"x_max":0,"o":"m 137 958 l 313 958 l 467 749 l 346 749 m 325 -14 b 78 321 154 -14 78 117 l 78 677 l 245 677 l 245 315 b 368 136 245 204 268 136 b 525 372 446 136 525 176 l 525 677 l 693 677 l 693 0 l 525 0 l 525 79 b 325 -14 476 16 406 -14 "},"ű":{"ha":791,"x_min":0,"x_max":0,"o":"m 338 958 l 487 958 l 307 734 l 186 734 m 574 958 l 751 958 l 543 734 l 422 734 m 325 -14 b 78 321 154 -14 78 117 l 78 677 l 245 677 l 245 315 b 368 136 245 204 268 136 b 525 372 446 136 525 176 l 525 677 l 693 677 l 693 0 l 525 0 l 525 79 b 325 -14 476 16 406 -14 "},"ū":{"ha":791,"x_min":0,"x_max":0,"o":"m 199 875 l 578 875 l 578 778 l 199 778 m 325 -14 b 78 321 154 -14 78 117 l 78 677 l 245 677 l 245 315 b 368 136 245 204 268 136 b 525 372 446 136 525 176 l 525 677 l 693 677 l 693 0 l 525 0 l 525 79 b 325 -14 476 16 406 -14 "},"ų":{"ha":791,"x_min":0,"x_max":0,"o":"m 754 -222 b 606 -306 722 -271 675 -306 b 453 -167 518 -306 453 -250 b 564 0 453 -57 564 0 l 525 0 l 525 79 b 325 -14 476 16 406 -14 b 78 321 154 -14 78 117 l 78 677 l 245 677 l 245 315 b 368 136 245 204 268 136 b 525 372 446 136 525 176 l 525 677 l 693 677 l 693 0 b 551 -146 680 -4 551 -56 b 606 -204 551 -187 578 -204 b 671 -165 632 -204 653 -191 "},"ů":{"ha":791,"x_min":0,"x_max":0,"o":"m 389 725 b 233 882 301 725 233 798 b 389 1038 233 968 302 1038 b 546 882 473 1038 546 970 b 389 725 546 794 476 725 m 389 814 b 457 884 429 814 457 843 b 389 949 457 921 432 949 b 322 884 349 949 322 921 b 389 814 322 843 351 814 m 325 -14 b 78 321 154 -14 78 117 l 78 677 l 245 677 l 245 315 b 368 136 245 204 268 136 b 525 372 446 136 525 176 l 525 677 l 693 677 l 693 0 l 525 0 l 525 79 b 325 -14 476 16 406 -14 "},"ũ":{"ha":791,"x_min":0,"x_max":0,"o":"m 476 749 b 300 847 370 749 350 847 b 256 754 272 847 256 814 l 161 754 b 305 948 161 879 216 948 b 477 852 401 948 431 852 b 519 944 501 852 519 884 l 618 944 b 476 749 618 819 564 749 m 325 -14 b 78 321 154 -14 78 117 l 78 677 l 245 677 l 245 315 b 368 136 245 204 268 136 b 525 372 446 136 525 176 l 525 677 l 693 677 l 693 0 l 525 0 l 525 79 b 325 -14 476 16 406 -14 "},"v":{"ha":677,"x_min":0,"x_max":0,"o":"m -5 677 l 175 677 l 339 214 l 504 677 l 684 677 l 407 0 l 271 0 "},"w":{"ha":994,"x_min":0,"x_max":0,"o":"m 7 677 l 183 677 l 298 253 l 427 677 l 568 677 l 696 254 l 812 677 l 989 677 l 779 0 l 631 0 l 497 444 l 364 -3 l 215 -3 "},"ẃ":{"ha":994,"x_min":0,"x_max":0,"o":"m 570 958 l 747 958 l 538 762 l 418 762 m 7 677 l 183 677 l 298 253 l 427 677 l 568 677 l 696 254 l 812 677 l 989 677 l 779 0 l 631 0 l 497 444 l 364 -3 l 215 -3 "},"ŵ":{"ha":994,"x_min":0,"x_max":0,"o":"m 497 983 l 712 745 l 585 745 l 497 843 l 411 745 l 283 745 m 7 677 l 183 677 l 298 253 l 427 677 l 568 677 l 696 254 l 812 677 l 989 677 l 779 0 l 631 0 l 497 444 l 364 -3 l 215 -3 "},"ẅ":{"ha":994,"x_min":0,"x_max":0,"o":"m 308 958 l 447 958 l 447 806 l 308 806 m 549 958 l 687 958 l 687 806 l 549 806 m 7 677 l 183 677 l 298 253 l 427 677 l 568 677 l 696 254 l 812 677 l 989 677 l 779 0 l 631 0 l 497 444 l 364 -3 l 215 -3 "},"ẁ":{"ha":994,"x_min":0,"x_max":0,"o":"m 245 958 l 422 958 l 575 749 l 454 749 m 7 677 l 183 677 l 298 253 l 427 677 l 568 677 l 696 254 l 812 677 l 989 677 l 779 0 l 631 0 l 497 444 l 364 -3 l 215 -3 "},"x":{"ha":699,"x_min":0,"x_max":0,"o":"m 239 342 l 7 677 l 208 677 l 349 454 l 489 677 l 692 677 l 458 342 l 692 0 l 489 0 l 349 228 l 208 0 l 7 0 "},"y":{"ha":700,"x_min":0,"x_max":0,"o":"m 261 18 l -4 677 l 178 677 l 349 207 l 522 677 l 704 677 l 317 -292 l 136 -292 "},"ý":{"ha":700,"x_min":0,"x_max":0,"o":"m 422 958 l 598 958 l 390 762 l 269 762 m 261 18 l -4 677 l 178 677 l 349 207 l 522 677 l 704 677 l 317 -292 l 136 -292 "},"ŷ":{"ha":700,"x_min":0,"x_max":0,"o":"m 349 983 l 564 745 l 436 745 l 349 843 l 262 745 l 134 745 m 261 18 l -4 677 l 178 677 l 349 207 l 522 677 l 704 677 l 317 -292 l 136 -292 "},"ÿ":{"ha":700,"x_min":0,"x_max":0,"o":"m 159 958 l 298 958 l 298 806 l 159 806 m 400 958 l 538 958 l 538 806 l 400 806 m 261 18 l -4 677 l 178 677 l 349 207 l 522 677 l 704 677 l 317 -292 l 136 -292 "},"ỳ":{"ha":700,"x_min":0,"x_max":0,"o":"m 97 958 l 273 958 l 427 749 l 306 749 m 261 18 l -4 677 l 178 677 l 349 207 l 522 677 l 704 677 l 317 -292 l 136 -292 "},"ỹ":{"ha":700,"x_min":0,"x_max":0,"o":"m 436 749 b 260 847 330 749 310 847 b 216 754 232 847 216 814 l 121 754 b 265 948 121 879 176 948 b 437 852 361 948 391 852 b 479 944 461 852 479 884 l 578 944 b 436 749 578 819 524 749 m 261 18 l -4 677 l 178 677 l 349 207 l 522 677 l 704 677 l 317 -292 l 136 -292 "},"z":{"ha":681,"x_min":0,"x_max":0,"o":"m 633 559 l 266 139 l 633 139 l 633 0 l 36 0 l 36 110 l 419 539 l 56 539 l 56 677 l 633 677 "},"ź":{"ha":681,"x_min":0,"x_max":0,"o":"m 375 762 l 254 762 l 407 958 l 583 958 m 633 559 l 266 139 l 633 139 l 633 0 l 36 0 l 36 110 l 419 539 l 56 539 l 56 677 l 633 677 "},"ž":{"ha":681,"x_min":0,"x_max":0,"o":"m 334 732 l 119 957 l 248 957 l 334 865 l 421 957 l 549 957 m 633 559 l 266 139 l 633 139 l 633 0 l 36 0 l 36 110 l 419 539 l 56 539 l 56 677 l 633 677 "},"ż":{"ha":681,"x_min":0,"x_max":0,"o":"m 421 806 l 248 806 l 248 958 l 421 958 m 633 559 l 266 139 l 633 139 l 633 0 l 36 0 l 36 110 l 419 539 l 56 539 l 56 677 l 633 677 "},"ﬁ":{"ha":751,"x_min":0,"x_max":0,"o":"m 119 539 l 14 539 l 14 677 l 119 677 b 410 972 119 847 203 972 b 636 889 550 972 603 916 l 549 762 b 408 822 522 789 488 822 b 283 677 314 822 283 770 l 657 677 l 657 0 l 497 0 l 497 539 l 283 539 l 283 0 l 119 0 "},"ﬂ":{"ha":772,"x_min":0,"x_max":0,"o":"m 632 -14 b 497 135 570 -14 497 14 l 497 793 b 389 827 460 817 428 827 b 283 736 326 827 283 790 l 283 677 l 393 677 l 393 539 l 283 539 l 283 0 l 119 0 l 119 539 l 14 539 l 14 677 l 119 677 l 119 741 b 399 972 119 878 233 972 b 657 865 496 972 582 932 l 657 208 b 711 135 657 135 682 135 b 743 139 725 135 737 138 l 743 0 b 632 -14 711 -7 675 -14 "},"ª":{"ha":647,"x_min":0,"x_max":0,"o":"m 267 481 b 98 629 178 481 98 538 b 288 778 98 734 182 778 l 419 778 b 314 880 416 844 387 880 b 193 808 256 880 218 844 l 113 863 b 317 972 170 940 228 972 b 517 779 443 972 517 895 l 517 490 l 427 490 l 424 547 b 267 481 382 501 332 481 m 285 574 b 419 688 355 574 411 629 l 294 688 b 207 629 240 688 207 665 b 285 574 207 599 248 574 "},"º":{"ha":672,"x_min":0,"x_max":0,"o":"m 336 482 b 93 728 192 482 93 593 b 336 972 93 861 192 972 b 578 728 479 972 578 861 b 336 482 578 593 479 482 m 336 581 b 464 728 428 581 464 646 b 336 875 464 810 428 875 b 207 728 243 875 207 810 b 336 581 207 646 243 581 "},"ǃ":{"ha":403,"x_min":0,"x_max":0,"o":"m 119 972 l 283 972 l 264 290 l 139 290 m 111 179 l 292 179 l 292 0 l 111 0 "},"π":{"ha":681,"x_min":0,"x_max":0,"o":"m 566 -14 b 407 161 467 -14 407 56 l 407 539 l 253 539 l 253 0 l 114 0 l 114 539 l 58 539 l 58 677 l 602 677 l 602 539 l 546 539 l 546 183 b 576 109 546 119 562 109 b 604 118 583 109 593 110 l 648 9 b 566 -14 624 -7 595 -14 "},"⁄":{"ha":583,"x_min":0,"x_max":0,"o":"m 481 958 l 639 958 l 103 0 l -56 0 "},".":{"ha":439,"x_min":0,"x_max":0,"o":"m 136 179 l 302 179 l 302 0 l 136 0 "},",":{"ha":429,"x_min":0,"x_max":0,"o":"m 172 179 l 363 179 l 191 -205 l 81 -205 "},":":{"ha":458,"x_min":0,"x_max":0,"o":"m 139 647 l 319 647 l 319 468 l 139 468 m 139 179 l 319 179 l 319 0 l 139 0 "},";":{"ha":449,"x_min":0,"x_max":0,"o":"m 139 647 l 319 647 l 319 468 l 139 468 m 165 179 l 356 179 l 184 -205 l 74 -205 "},"…":{"ha":1000,"x_min":0,"x_max":0,"o":"m 136 179 l 302 179 l 302 0 l 136 0 m 416 179 l 583 179 l 583 0 l 416 0 m 697 179 l 864 179 l 864 0 l 697 0 "},"!":{"ha":431,"x_min":0,"x_max":0,"o":"m 134 972 l 297 972 l 278 290 l 153 290 m 125 179 l 306 179 l 306 0 l 125 0 "},"¡":{"ha":431,"x_min":0,"x_max":0,"o":"m 125 677 l 306 677 l 306 498 l 125 498 m 153 387 l 278 387 l 297 -294 l 134 -294 "},"?":{"ha":676,"x_min":0,"x_max":0,"o":"m 262 386 b 489 704 262 610 489 543 b 332 835 489 794 425 835 b 176 672 222 835 176 777 l 31 672 b 326 972 31 863 149 972 b 633 701 490 972 633 879 b 403 385 633 453 403 479 l 403 288 l 262 288 m 244 179 l 425 179 l 425 0 l 244 0 "},"¿":{"ha":673,"x_min":0,"x_max":0,"o":"m 252 677 l 432 677 l 432 498 l 252 498 m 350 -294 b 43 -24 186 -294 43 -201 b 273 293 43 225 273 199 l 273 390 l 414 390 l 414 292 b 187 -26 414 68 187 135 b 343 -157 187 -117 252 -157 b 500 -16 433 -157 498 -109 l 646 -16 b 350 -294 644 -191 511 -294 "},"·":{"ha":418,"x_min":0,"x_max":0,"o":"m 208 441 b 109 543 151 441 109 488 b 208 643 109 599 153 643 b 310 543 264 643 310 600 b 208 441 310 488 265 441 "},"•":{"ha":514,"x_min":0,"x_max":0,"o":"m 257 165 b 96 326 168 165 96 237 b 257 488 96 415 168 488 b 418 326 346 488 418 415 b 257 165 418 237 346 165 "},"*":{"ha":611,"x_min":0,"x_max":0,"o":"m 123 635 l 231 743 l 77 764 l 118 878 l 260 822 l 240 958 l 372 958 l 353 822 l 494 878 l 534 764 l 380 743 l 488 635 l 380 566 l 306 707 l 231 566 "},"#":{"ha":937,"x_min":0,"x_max":0,"o":"m 211 281 l 53 281 l 53 397 l 236 397 l 272 575 l 109 575 l 109 697 l 297 697 l 361 972 l 492 972 l 427 676 l 596 676 l 659 972 l 789 972 l 725 692 l 884 692 l 884 575 l 700 575 l 664 397 l 828 397 l 828 275 l 639 275 l 576 0 l 447 0 l 510 296 l 340 296 l 279 0 l 150 0 m 534 397 l 571 575 l 401 575 l 366 397 "},"/":{"ha":633,"x_min":0,"x_max":0,"o":"m 504 1028 l 659 1028 l 129 -292 l -25 -292 "},"\\":{"ha":633,"x_min":0,"x_max":0,"o":"m -25 1028 l 129 1028 l 659 -292 l 504 -292 "},"‥":{"ha":720,"x_min":0,"x_max":0,"o":"m 136 179 l 302 179 l 302 0 l 136 0 m 416 179 l 583 179 l 583 0 l 416 0 "},"‣":{"ha":621,"x_min":0,"x_max":0,"o":"m 139 625 l 590 361 l 139 97 "},"(":{"ha":389,"x_min":0,"x_max":0,"o":"m 235 -85 b 68 479 131 24 68 272 b 232 1040 68 743 135 932 l 380 1040 b 199 476 254 885 199 700 b 379 -85 199 224 257 75 l 235 -85 "},")":{"ha":389,"x_min":0,"x_max":0,"o":"m 9 -85 b 191 476 132 75 191 224 b 8 1040 191 700 135 885 l 157 1040 b 321 479 254 932 321 743 b 154 -85 321 272 258 24 l 9 -85 "},"{":{"ha":419,"x_min":0,"x_max":0,"o":"m 277 -106 b 150 -35 214 -106 176 -74 b 125 86 132 -8 125 32 l 125 330 b 36 403 125 372 77 387 l 36 511 b 125 607 94 532 125 550 l 125 896 b 292 1071 125 1007 174 1071 l 326 1071 b 383 1068 346 1071 366 1069 l 383 957 b 314 966 359 962 323 966 b 265 943 273 966 265 960 l 265 597 b 170 453 265 522 222 482 b 265 334 227 427 265 385 l 265 89 b 334 1 265 40 281 1 b 383 8 346 1 366 4 l 383 -103 b 325 -106 366 -103 345 -106 l 277 -106 "},"}":{"ha":419,"x_min":0,"x_max":0,"o":"m 94 -106 b 36 -103 75 -106 54 -103 l 36 8 b 86 1 54 4 74 1 b 154 89 139 1 154 40 l 154 334 b 250 453 154 383 193 425 b 154 597 197 481 154 521 l 154 943 b 106 966 154 960 146 966 b 36 957 96 966 60 962 l 36 1068 b 93 1071 54 1069 74 1071 l 127 1071 b 294 896 245 1071 294 1007 l 294 607 b 383 511 294 550 325 532 l 383 403 b 294 330 343 387 294 372 l 294 86 b 269 -35 294 32 288 -7 b 143 -106 244 -74 205 -106 l 94 -106 "},"[":{"ha":435,"x_min":0,"x_max":0,"o":"m 119 1067 l 412 1067 l 412 957 l 253 957 l 253 0 l 412 0 l 412 -111 l 119 -111 "},"]":{"ha":435,"x_min":0,"x_max":0,"o":"m 22 0 l 182 0 l 182 957 l 22 957 l 22 1067 l 315 1067 l 315 -111 l 22 -111 "},"-":{"ha":587,"x_min":0,"x_max":0,"o":"m 96 469 l 492 469 l 492 345 l 96 345 "},"­":{"ha":685,"x_min":0,"x_max":0,"o":"m 96 469 l 589 469 l 589 345 l 96 345 "},"–":{"ha":713,"x_min":0,"x_max":0,"o":"m 96 469 l 616 469 l 616 345 l 96 345 "},"—":{"ha":1389,"x_min":0,"x_max":0,"o":"m 0 469 l 1389 469 l 1389 345 l 0 345 "},"_":{"ha":846,"x_min":0,"x_max":0,"o":"m 135 0 l 711 0 l 711 -125 l 135 -125 "},"―":{"ha":1046,"x_min":0,"x_max":0,"o":"m 96 469 l 950 469 l 950 345 l 96 345 "},"‚":{"ha":375,"x_min":0,"x_max":0,"o":"m 163 179 l 335 179 l 168 -153 l 72 -153 "},"„":{"ha":611,"x_min":0,"x_max":0,"o":"m 163 179 l 335 179 l 168 -153 l 72 -153 m 399 179 l 571 179 l 404 -153 l 309 -153 "},"“":{"ha":653,"x_min":0,"x_max":0,"o":"m 37 958 l 225 958 l 318 581 l 208 581 m 301 958 l 489 958 l 582 581 l 472 581 "},"”":{"ha":653,"x_min":0,"x_max":0,"o":"m 164 958 l 351 958 l 180 581 l 71 581 m 428 958 l 615 958 l 444 581 l 335 581 "},"‘":{"ha":389,"x_min":0,"x_max":0,"o":"m 37 958 l 225 958 l 318 581 l 208 581 "},"’":{"ha":389,"x_min":0,"x_max":0,"o":"m 164 958 l 351 958 l 180 581 l 71 581 "},"«":{"ha":647,"x_min":0,"x_max":0,"o":"m 11 346 l 301 587 l 301 444 l 179 346 l 301 249 l 301 106 m 257 346 l 547 587 l 547 444 l 425 346 l 547 249 l 547 106 "},"»":{"ha":648,"x_min":0,"x_max":0,"o":"m 98 249 l 221 346 l 98 444 l 98 587 l 389 346 l 98 106 m 345 249 l 467 346 l 345 444 l 345 587 l 635 346 l 345 106 "},"‹":{"ha":401,"x_min":0,"x_max":0,"o":"m 11 346 l 301 587 l 301 444 l 179 346 l 301 249 l 301 106 "},"›":{"ha":403,"x_min":0,"x_max":0,"o":"m 98 249 l 221 346 l 98 444 l 98 587 l 389 346 l 98 106 "},"\"":{"ha":650,"x_min":0,"x_max":0,"o":"m 138 958 l 277 958 l 277 587 l 138 587 m 374 958 l 513 958 l 513 587 l 374 587 "},"'":{"ha":414,"x_min":0,"x_max":0,"o":"m 138 978 l 277 978 l 277 607 l 138 607 "}," ":{"ha":334,"x_min":0,"x_max":0,"o":""}," ":{"ha":382,"x_min":0,"x_max":0,"o":""},"¢":{"ha":757,"x_min":0,"x_max":0,"o":"m 335 -14 b 78 338 158 18 78 174 b 335 689 78 501 160 657 l 335 814 l 457 814 l 457 689 b 693 490 574 669 643 602 l 546 433 b 397 558 522 518 479 558 b 232 338 278 558 232 450 b 397 117 232 224 277 117 b 546 241 482 117 522 161 l 684 187 b 457 -14 640 71 568 5 l 457 -139 l 335 -139 "},"¤":{"ha":914,"x_min":0,"x_max":0,"o":"m 118 179 l 191 250 b 191 606 117 355 118 500 l 119 675 l 207 766 l 279 693 b 635 694 386 766 529 768 l 707 765 l 796 677 l 724 607 b 724 249 798 500 798 355 l 796 179 l 708 87 l 635 161 b 278 161 529 87 385 87 l 205 87 m 315 289 b 596 289 395 210 518 210 b 596 567 672 367 673 490 b 317 566 518 643 395 643 b 315 289 241 489 240 364 "},"$":{"ha":766,"x_min":0,"x_max":0,"o":"m 315 -8 b 31 261 176 17 56 107 l 197 297 b 396 143 210 193 292 143 b 555 273 497 143 555 183 b 94 715 555 456 94 408 b 315 968 94 851 195 942 l 315 1125 l 452 1125 l 452 971 b 681 814 549 956 629 907 l 542 732 b 387 823 509 794 450 823 b 265 722 319 823 265 782 b 726 278 265 551 726 600 b 452 -11 726 115 604 7 l 452 -167 l 315 -167 "},"€":{"ha":859,"x_min":0,"x_max":0,"o":"m 534 -14 b 183 307 338 -14 225 125 l 65 307 l 118 429 l 167 429 b 165 479 165 447 165 463 b 167 538 165 498 167 521 l 65 538 l 118 664 l 184 664 b 533 974 229 843 340 974 b 802 835 643 974 736 925 l 696 751 b 533 825 657 803 599 825 b 323 664 424 825 358 760 l 684 664 l 631 541 l 301 541 b 298 490 300 522 298 509 b 301 435 298 472 300 452 l 684 435 l 631 313 l 323 313 b 534 135 358 203 425 135 b 693 211 602 135 653 157 l 793 113 b 534 -14 728 31 637 -14 "},"ƒ":{"ha":697,"x_min":0,"x_max":0,"o":"m 43 -171 b 272 21 215 -171 272 -129 l 272 541 l 151 541 l 151 677 l 272 677 l 272 762 b 476 982 272 890 364 982 b 644 909 541 982 589 957 l 554 804 b 476 843 521 833 507 843 b 411 762 444 843 411 822 l 411 677 l 618 677 l 618 541 l 411 541 l 411 21 b 43 -310 411 -192 285 -310 "},"£":{"ha":814,"x_min":0,"x_max":0,"o":"m 93 140 b 260 322 93 140 260 211 b 245 410 260 363 245 410 l 96 410 l 96 549 l 212 549 b 187 703 212 549 187 612 b 479 981 187 856 290 981 b 754 770 616 981 714 884 l 625 722 b 479 842 597 796 546 842 b 326 700 383 842 326 796 b 355 549 326 616 355 549 l 679 549 l 679 410 l 387 410 b 396 325 387 410 396 370 b 310 139 396 179 310 139 l 799 139 l 799 0 l 93 0 "},"₱":{"ha":917,"x_min":0,"x_max":0,"o":"m 871 642 l 808 642 b 471 397 791 484 654 397 l 342 397 l 342 0 l 171 0 l 171 642 l 90 642 l 90 715 l 171 715 l 171 958 l 471 958 b 807 715 652 958 787 871 l 871 715 m 342 715 l 633 715 b 471 798 617 768 566 798 l 342 798 m 471 558 b 635 642 571 558 622 587 l 342 642 l 342 558 l 471 558 "},"₳":{"ha":911,"x_min":0,"x_max":0,"o":"m 903 0 l 717 0 l 643 208 l 271 208 l 196 0 l 8 0 l 92 208 l 22 208 l 22 314 l 134 314 l 189 452 l 22 452 l 22 557 l 231 557 l 392 958 l 521 958 l 681 557 l 889 557 l 889 452 l 723 452 l 778 314 l 889 314 l 889 208 l 820 208 m 389 557 l 524 557 l 456 747 m 611 314 l 562 452 l 353 452 l 304 314 "},"₴":{"ha":852,"x_min":0,"x_max":0,"o":"m 782 271 b 415 -11 751 82 585 -11 b 82 281 232 -11 82 97 b 386 583 82 476 252 531 l 167 583 l 167 677 l 533 677 b 543 718 540 690 543 703 b 424 819 543 778 490 819 b 271 717 361 819 304 782 l 127 804 b 419 972 193 921 301 972 b 718 708 581 972 718 878 b 447 465 718 531 574 500 l 699 465 l 699 371 l 275 371 b 257 298 264 351 257 328 b 412 149 257 200 313 149 b 611 314 514 149 599 201 "},"₸":{"ha":933,"x_min":0,"x_max":0,"o":"m 81 958 l 852 958 l 852 804 l 81 804 m 380 579 l 81 579 l 81 733 l 852 733 l 852 579 l 553 579 l 553 0 l 380 0 "},"₽":{"ha":918,"x_min":0,"x_max":0,"o":"m 215 178 l 94 178 l 94 311 l 215 311 l 215 411 l 94 411 l 94 558 l 215 558 l 215 958 l 515 958 b 854 675 711 958 854 856 b 515 411 854 496 711 411 l 386 411 l 386 311 l 612 311 l 612 178 l 386 178 l 386 0 l 215 0 m 515 558 b 684 675 633 558 684 599 b 515 798 684 753 632 798 l 386 798 l 386 558 "},"¥":{"ha":897,"x_min":0,"x_max":0,"o":"m 378 132 l 175 132 l 175 257 l 378 257 l 378 336 l 175 336 l 175 463 l 319 463 l -1 958 l 168 958 l 449 504 l 729 958 l 899 958 l 578 461 l 722 461 l 722 336 l 519 336 l 519 257 l 722 257 l 722 132 l 519 132 l 519 0 l 378 0 "},"+":{"ha":850,"x_min":0,"x_max":0,"o":"m 363 361 l 53 361 l 53 486 l 363 486 l 363 775 l 488 775 l 488 486 l 798 486 l 798 361 l 488 361 l 488 72 l 363 72 "},"−":{"ha":1036,"x_min":0,"x_max":0,"o":"m 146 489 l 890 489 l 890 364 l 146 364 "},"×":{"ha":739,"x_min":0,"x_max":0,"o":"m 62 204 l 281 424 l 77 628 l 165 717 l 370 513 l 589 730 l 676 643 l 458 424 l 663 220 l 574 131 l 370 335 l 150 117 "},"÷":{"ha":859,"x_min":0,"x_max":0,"o":"m 339 745 l 519 745 l 519 566 l 339 566 m 57 489 l 802 489 l 802 364 l 57 364 m 339 277 l 519 277 l 519 97 l 339 97 "},"=":{"ha":860,"x_min":0,"x_max":0,"o":"m 149 650 l 711 650 l 711 510 l 149 510 m 149 401 l 711 401 l 711 261 l 149 261 "},"≠":{"ha":789,"x_min":0,"x_max":0,"o":"m 215 275 l 117 275 l 117 401 l 283 401 l 342 510 l 117 510 l 117 636 l 410 636 l 589 958 l 730 958 l 551 636 l 665 636 l 665 510 l 484 510 l 425 401 l 665 401 l 665 275 l 357 275 l 203 0 l 61 0 "},">":{"ha":839,"x_min":0,"x_max":0,"o":"m 71 224 l 541 457 l 71 690 l 140 811 l 808 457 l 140 103 "},"<":{"ha":839,"x_min":0,"x_max":0,"o":"m 31 457 l 699 811 l 768 690 l 298 457 l 768 224 l 699 103 "},"≥":{"ha":892,"x_min":0,"x_max":0,"o":"m 85 225 l 553 476 l 85 728 l 154 848 l 822 476 l 154 104 m 81 0 l 843 0 l 843 -125 l 81 -125 "},"≤":{"ha":893,"x_min":0,"x_max":0,"o":"m 69 476 l 737 848 l 807 728 l 339 476 l 807 225 l 737 104 m 49 0 l 811 0 l 811 -125 l 49 -125 "},"±":{"ha":903,"x_min":0,"x_max":0,"o":"m 389 361 l 79 361 l 79 486 l 389 486 l 389 775 l 514 775 l 514 486 l 823 486 l 823 361 l 514 361 l 514 72 l 389 72 m 81 0 l 822 0 l 822 -125 l 81 -125 "},"≈":{"ha":790,"x_min":0,"x_max":0,"o":"m 501 498 b 275 568 374 498 329 568 b 235 517 237 568 235 553 l 119 517 b 273 684 119 632 179 684 b 505 616 419 684 454 616 b 550 679 546 616 550 633 l 671 679 b 501 498 671 559 615 498 m 501 262 b 275 332 374 262 329 332 b 235 281 237 332 235 317 l 119 281 b 273 447 119 396 179 447 b 505 380 419 447 454 380 b 550 443 546 380 550 397 l 671 443 b 501 262 671 323 615 262 "},"~":{"ha":785,"x_min":0,"x_max":0,"o":"m 498 257 b 272 326 371 257 326 326 b 232 275 235 326 232 311 l 117 275 b 271 441 117 390 176 441 b 503 375 416 441 452 375 b 547 437 543 375 547 392 l 668 437 b 498 257 668 318 612 257 "},"¬":{"ha":882,"x_min":0,"x_max":0,"o":"m 576 393 l 92 393 l 92 541 l 734 541 l 734 197 l 576 197 "},"∞":{"ha":1275,"x_min":0,"x_max":0,"o":"m 363 240 b 93 498 193 240 93 347 b 363 757 93 650 193 757 b 637 611 457 757 561 707 b 913 757 715 708 819 757 b 1182 498 1082 757 1182 650 b 913 240 1182 347 1082 240 b 637 386 818 240 714 290 b 363 240 559 289 456 240 m 383 374 b 564 498 436 374 513 414 b 383 624 511 585 436 624 b 240 498 296 624 240 579 b 383 374 240 418 296 374 m 892 374 b 1035 498 979 374 1035 418 b 892 624 1035 579 979 624 b 711 498 839 624 762 583 b 892 374 764 412 839 374 "},"∫":{"ha":610,"x_min":0,"x_max":0,"o":"m 28 -171 b 236 14 180 -171 236 -122 l 236 771 b 440 982 236 893 328 982 b 591 924 493 982 547 962 l 503 818 b 440 843 479 838 458 843 b 375 765 408 843 375 823 l 375 9 b 28 -310 375 -199 237 -310 "},"Ω":{"ha":1135,"x_min":0,"x_max":0,"o":"m 97 138 l 282 138 b 100 489 171 227 100 363 b 222 807 100 606 147 729 b 567 954 310 897 443 954 b 911 806 690 954 823 896 b 1034 485 986 728 1034 604 b 865 132 1034 354 968 218 l 1036 132 l 1036 0 l 643 0 l 643 127 b 889 484 793 150 889 289 b 812 707 889 572 860 659 b 567 815 750 774 654 815 b 321 707 479 815 385 772 b 244 484 273 659 244 572 b 490 127 244 288 340 149 l 490 0 l 97 0 "},"∆":{"ha":873,"x_min":0,"x_max":0,"o":"m 436 1011 l 843 0 l 31 0 m 640 139 l 436 673 l 233 139 "},"∏":{"ha":911,"x_min":0,"x_max":0,"o":"m 160 819 l 104 819 l 104 958 l 807 958 l 807 819 l 751 819 l 751 0 l 612 0 l 612 819 l 298 819 l 298 0 l 160 0 "},"∑":{"ha":860,"x_min":0,"x_max":0,"o":"m 54 72 l 439 479 l 54 886 l 54 958 l 787 958 l 787 819 l 300 819 l 636 479 l 300 139 l 787 139 l 787 0 l 54 0 "},"√":{"ha":803,"x_min":0,"x_max":0,"o":"m 143 367 l 36 367 l 36 505 l 243 505 l 342 193 l 642 968 l 771 920 l 334 -164 "},"µ":{"ha":878,"x_min":0,"x_max":0,"o":"m 149 677 l 302 677 l 302 283 b 418 127 302 199 326 127 b 596 300 514 127 596 208 l 596 677 l 750 677 l 750 0 l 596 0 l 596 66 b 407 -16 553 22 486 -16 b 300 5 367 -16 330 -8 l 288 -180 l 149 -180 "},"∂":{"ha":869,"x_min":0,"x_max":0,"o":"m 380 -8 b 66 306 182 -8 66 123 b 428 682 66 529 243 682 b 619 621 493 682 559 663 b 431 848 619 778 536 848 b 269 742 380 848 307 833 l 149 779 b 446 970 197 900 306 970 b 783 518 685 970 783 770 b 380 -8 783 210 635 -8 m 390 134 b 619 371 500 134 619 220 b 449 547 619 472 567 547 b 220 307 294 547 220 419 b 390 134 220 189 301 134 "},"%":{"ha":1044,"x_min":0,"x_max":0,"o":"m 714 986 l 857 986 l 321 -14 l 178 -14 m 244 521 b 52 747 94 521 52 660 b 240 974 52 835 93 974 b 432 746 374 974 432 850 b 244 521 432 643 375 521 m 241 637 b 310 747 283 637 310 689 b 240 856 310 807 283 856 b 171 747 196 856 171 807 b 241 637 171 688 196 637 m 806 -7 b 612 222 656 -7 612 135 b 802 453 612 311 654 453 b 993 222 936 453 993 328 b 806 -7 993 118 936 -7 m 804 110 b 871 224 844 110 871 163 b 802 335 871 285 844 335 b 732 222 758 335 732 285 b 804 110 732 161 757 110 "},"‰":{"ha":1478,"x_min":0,"x_max":0,"o":"m 714 986 l 857 986 l 321 -14 l 178 -14 m 244 521 b 52 747 94 521 52 660 b 240 974 52 835 93 974 b 432 746 374 974 432 850 b 244 521 432 643 375 521 m 241 637 b 310 747 283 637 310 689 b 240 856 310 807 283 856 b 171 747 196 856 171 807 b 241 637 171 688 196 637 m 806 -7 b 612 222 656 -7 612 135 b 802 453 612 311 654 453 b 993 222 936 453 993 328 b 806 -7 993 118 936 -7 m 1239 -7 b 1046 222 1089 -7 1046 135 b 1235 453 1046 311 1088 453 b 1426 222 1368 453 1426 328 b 1239 -7 1426 118 1369 -7 m 804 110 b 871 224 844 110 871 163 b 802 335 871 285 844 335 b 732 222 758 335 732 285 b 804 110 732 161 757 110 m 1236 110 b 1304 224 1278 110 1304 163 b 1235 335 1304 285 1278 335 b 1165 222 1190 335 1165 285 b 1236 110 1165 161 1190 110 "},"‱":{"ha":1908,"x_min":0,"x_max":0,"o":"m 714 986 l 857 986 l 321 -14 l 178 -14 m 244 521 b 52 747 94 521 52 660 b 240 974 52 835 93 974 b 432 746 374 974 432 850 b 244 521 432 643 375 521 m 241 637 b 310 747 283 637 310 689 b 240 856 310 807 283 856 b 171 747 196 856 171 807 b 241 637 171 688 196 637 m 806 -7 b 612 222 656 -7 612 135 b 802 453 612 311 654 453 b 993 222 936 453 993 328 b 806 -7 993 118 936 -7 m 1239 -7 b 1046 222 1089 -7 1046 135 b 1235 453 1046 311 1088 453 b 1426 222 1368 453 1426 328 b 1239 -7 1426 118 1369 -7 m 1670 -7 b 1476 222 1520 -7 1476 135 b 1666 453 1476 311 1518 453 b 1857 222 1799 453 1857 328 b 1670 -7 1857 118 1800 -7 m 804 110 b 871 224 844 110 871 163 b 802 335 871 285 844 335 b 732 222 758 335 732 285 b 804 110 732 161 757 110 m 1236 110 b 1304 224 1278 110 1304 163 b 1235 335 1304 285 1278 335 b 1165 222 1190 335 1165 285 b 1236 110 1165 161 1190 110 m 1667 110 b 1735 224 1708 110 1735 163 b 1666 335 1735 285 1708 335 b 1596 222 1621 335 1596 285 b 1667 110 1596 161 1621 110 "},"→":{"ha":1511,"x_min":0,"x_max":0,"o":"m 721 182 l 1104 361 l 54 361 l 54 500 l 1111 500 l 721 677 l 798 811 l 1482 433 l 798 49 "},"←":{"ha":1511,"x_min":0,"x_max":0,"o":"m 29 433 l 714 811 l 790 677 l 400 500 l 1457 500 l 1457 361 l 407 361 l 790 182 l 714 49 "},"◊":{"ha":745,"x_min":0,"x_max":0,"o":"m 41 486 l 302 972 l 441 972 l 703 486 l 441 0 l 302 0 m 539 486 l 372 818 l 205 486 l 372 154 "},"":{"ha":1161,"x_min":0,"x_max":0,"o":"m 581 -41 b 56 484 290 -41 56 193 b 581 1008 56 774 290 1008 b 1105 484 871 1008 1105 774 b 581 -41 1105 193 871 -41 m 581 7 b 1057 484 844 7 1057 220 b 581 960 1057 747 844 960 b 104 484 317 960 104 747 b 581 7 104 220 317 7 m 307 278 b 283 301 294 278 283 288 l 283 665 b 307 690 283 679 294 690 b 332 665 321 690 332 679 l 332 301 b 307 278 332 288 321 278 m 581 278 b 557 301 567 278 557 288 l 557 665 b 581 690 557 679 567 690 b 604 665 595 690 604 679 l 604 301 b 581 278 604 288 595 278 m 852 278 b 838 285 847 278 842 279 l 654 467 b 648 484 650 472 648 478 b 654 500 648 490 650 496 l 838 682 b 852 690 842 688 847 690 b 878 665 865 690 878 677 b 871 648 878 660 876 654 l 705 484 l 871 318 b 878 301 876 313 878 307 b 852 278 878 289 865 278 m 399 460 b 375 484 385 460 375 469 b 399 507 375 497 385 507 l 489 507 b 514 484 503 507 514 497 b 489 460 514 469 503 460 l 399 460 "},"@":{"ha":1367,"x_min":0,"x_max":0,"o":"m 677 -236 b 68 353 343 -236 68 -9 b 689 971 68 697 317 971 b 1301 370 1068 971 1301 689 b 986 -52 1301 160 1200 -52 b 796 109 871 -52 806 9 b 597 29 739 56 667 29 b 370 301 443 29 370 158 b 699 720 370 484 489 720 b 875 628 783 720 843 681 l 888 686 l 1021 686 b 918 160 991 530 918 293 b 982 83 918 103 932 83 b 1173 372 1121 83 1173 239 b 690 844 1173 621 993 844 b 197 355 390 844 197 627 b 679 -103 197 65 418 -103 b 843 -77 742 -103 791 -93 l 889 -200 b 677 -236 823 -224 757 -236 m 608 161 b 831 456 753 161 831 326 b 718 587 831 538 799 587 b 494 296 572 587 494 424 b 608 161 494 211 529 161 "},"&":{"ha":937,"x_min":0,"x_max":0,"o":"m 783 -52 l 657 93 b 368 -16 579 25 480 -16 b 54 224 193 -16 54 69 b 276 519 54 369 163 452 b 163 745 234 561 163 642 b 428 970 163 885 297 970 b 682 746 567 970 682 872 b 509 491 682 630 603 554 l 645 339 b 668 472 660 381 668 427 l 829 456 b 758 213 825 368 800 284 l 900 53 m 322 742 b 403 592 322 692 373 627 b 529 743 475 635 529 681 b 429 840 529 794 494 840 b 322 742 372 840 322 806 m 364 125 b 560 204 443 125 509 155 l 379 411 b 214 221 289 355 214 300 b 364 125 214 157 275 125 "},"¶":{"ha":856,"x_min":0,"x_max":0,"o":"m 351 422 b 45 690 193 422 45 521 b 351 958 45 860 193 958 l 467 958 l 467 -167 l 351 -167 m 589 958 l 705 958 l 705 -167 l 589 -167 "},"§":{"ha":754,"x_min":0,"x_max":0,"o":"m 380 -12 b 83 187 245 -12 111 46 l 241 235 b 392 121 260 153 307 121 b 521 197 465 121 521 144 b 115 493 521 339 115 243 b 174 633 115 553 139 596 b 117 762 132 671 117 715 b 380 972 117 900 248 972 b 637 843 503 972 600 913 l 505 766 b 375 844 489 814 443 844 b 254 760 293 844 254 800 b 660 467 254 629 660 726 b 606 328 660 418 646 371 b 660 197 643 293 660 249 b 380 -12 660 46 514 -12 m 464 387 b 521 463 500 400 521 428 b 310 582 521 539 424 555 b 254 498 269 564 254 525 b 464 387 254 428 357 412 "},"©":{"ha":1179,"x_min":0,"x_max":0,"o":"m 590 -33 b 56 479 294 -33 56 196 b 590 991 56 762 294 991 b 1124 479 885 991 1124 762 b 590 -33 1124 196 885 -33 m 590 94 b 996 479 810 94 996 271 b 590 864 996 688 810 864 b 184 479 370 864 184 688 b 590 94 184 271 370 94 m 602 179 b 338 478 425 179 338 319 b 602 777 338 636 425 777 b 842 611 718 777 791 718 l 724 561 b 602 647 693 624 661 647 b 464 478 505 647 464 572 b 600 310 464 383 504 310 b 722 396 667 310 694 338 l 842 346 b 602 179 790 235 715 179 "},"®":{"ha":1179,"x_min":0,"x_max":0,"o":"m 590 -32 b 56 481 294 -32 56 197 b 590 993 56 764 294 993 b 1124 481 885 993 1124 764 b 590 -32 1124 197 885 -32 m 590 90 b 1002 481 814 90 1002 268 b 590 871 1002 693 814 871 b 178 481 366 871 178 693 b 590 90 178 268 366 90 m 408 755 l 627 755 b 819 583 751 755 819 690 b 724 428 819 500 775 450 l 859 196 l 715 196 l 599 410 l 533 410 l 533 196 l 408 196 m 627 528 b 701 583 685 528 701 545 b 627 637 701 624 686 637 l 526 637 l 526 528 "},"™":{"ha":953,"x_min":0,"x_max":0,"o":"m 189 864 l 90 864 l 90 958 l 390 958 l 390 864 l 292 864 l 292 595 l 189 595 m 449 958 l 550 958 l 628 745 l 705 958 l 806 958 l 806 595 l 703 595 l 703 775 l 661 650 l 596 650 l 551 778 l 551 595 l 449 595 "},"°":{"ha":595,"x_min":0,"x_max":0,"o":"m 297 575 b 98 774 189 575 98 664 b 297 972 98 884 189 972 b 496 774 407 972 496 884 b 297 575 496 664 407 575 m 297 686 b 386 774 347 686 386 725 b 297 861 386 822 347 861 b 210 774 249 861 210 822 b 297 686 210 725 249 686 "},"|":{"ha":422,"x_min":0,"x_max":0,"o":"m 150 1040 l 272 1040 l 272 -347 l 150 -347 "},"¦":{"ha":436,"x_min":0,"x_max":0,"o":"m 150 1000 l 286 1000 l 286 496 l 150 496 m 150 285 l 286 285 l 286 -208 l 150 -208 "},"†":{"ha":528,"x_min":0,"x_max":0,"o":"m 189 549 l 39 549 l 39 699 l 189 699 l 189 958 l 339 958 l 339 699 l 489 699 l 489 549 l 339 549 l 339 -139 l 189 -139 "},"‡":{"ha":606,"x_min":0,"x_max":0,"o":"m 228 121 l 78 121 l 78 271 l 228 271 l 228 549 l 78 549 l 78 699 l 228 699 l 228 958 l 378 958 l 378 699 l 528 699 l 528 549 l 378 549 l 378 271 l 528 271 l 528 121 l 378 121 l 378 -139 l 228 -139 "},"№":{"ha":1611,"x_min":0,"x_max":0,"o":"m 123 958 l 294 958 l 697 288 l 697 958 l 863 958 l 863 0 l 690 0 l 289 672 l 289 0 l 123 0 m 1270 225 b 984 516 1097 225 984 358 b 1270 805 984 673 1097 805 b 1555 516 1442 805 1555 673 b 1270 225 1555 358 1442 225 m 1270 342 b 1413 516 1373 342 1413 425 b 1270 688 1413 608 1373 688 b 1126 516 1167 688 1126 608 b 1270 342 1126 425 1167 342 m 985 125 l 1546 125 l 1546 0 l 985 0 "},"^":{"ha":665,"x_min":0,"x_max":0,"o":"m 332 1015 l 623 546 l 458 546 l 332 750 l 207 546 l 43 546 "},"˵":{"ha":711,"x_min":0,"x_max":0,"o":"m 60 677 l 236 677 l 389 454 l 268 454 m 310 677 l 486 677 l 639 454 l 518 454 "},"˶":{"ha":711,"x_min":0,"x_max":0,"o":"m 225 677 l 401 677 l 193 454 l 72 454 m 475 677 l 652 677 l 443 454 l 322 454 "},"ː":{"ha":380,"x_min":0,"x_max":0,"o":"m 20 677 l 361 677 l 191 354 m 191 323 l 361 0 l 20 0 "},"ˑ":{"ha":380,"x_min":0,"x_max":0,"o":"m 20 468 l 361 468 l 191 143 "},"̈":{"ha":0,"x_min":0,"x_max":0,"o":"m -475 958 l -336 958 l -336 806 l -475 806 m -235 958 l -96 958 l -96 806 l -235 806 "},"̇":{"ha":0,"x_min":0,"x_max":0,"o":"m -270 958 l -96 958 l -96 806 l -270 806 "},"̀":{"ha":0,"x_min":0,"x_max":0,"o":"m -351 958 l -175 958 l -22 749 l -142 749 "},"́":{"ha":0,"x_min":0,"x_max":0,"o":"m -189 958 l -13 958 l -221 762 l -342 762 "},"̋":{"ha":0,"x_min":0,"x_max":0,"o":"m -422 958 l -274 958 l -454 734 l -575 734 m -186 958 l -10 958 l -218 734 l -339 734 "},"̂":{"ha":0,"x_min":0,"x_max":0,"o":"m -222 983 l -7 745 l -134 745 l -222 843 l -308 745 l -436 745 "},"̌":{"ha":0,"x_min":0,"x_max":0,"o":"m -437 957 l -309 957 l -223 865 l -136 957 l -8 957 l -223 732 "},"̆":{"ha":0,"x_min":0,"x_max":0,"o":"m -275 775 b -489 958 -424 775 -489 840 l -372 958 b -275 872 -372 899 -329 872 b -178 958 -218 872 -178 901 l -61 958 b -275 775 -61 835 -134 775 "},"̊":{"ha":0,"x_min":0,"x_max":0,"o":"m -216 725 b -371 882 -303 725 -371 798 b -216 1038 -371 968 -302 1038 b -58 882 -131 1038 -58 970 b -216 725 -58 794 -128 725 m -216 814 b -147 884 -175 814 -147 843 b -216 949 -147 921 -172 949 b -282 884 -256 949 -282 921 b -216 814 -282 843 -253 814 "},"̃":{"ha":0,"x_min":0,"x_max":0,"o":"m -210 764 b -386 861 -316 764 -336 861 b -430 768 -414 861 -430 828 l -525 768 b -380 962 -525 893 -469 962 b -208 867 -284 962 -255 867 b -166 958 -184 867 -166 899 l -68 958 b -210 764 -68 833 -122 764 "},"̄":{"ha":0,"x_min":0,"x_max":0,"o":"m -474 875 l -95 875 l -95 778 l -474 778 "},"̏":{"ha":0,"x_min":0,"x_max":0,"o":"m -603 958 l -427 958 l -273 734 l -394 734 m -353 958 l -176 958 l -24 734 l -144 734 "},"̒":{"ha":0,"x_min":0,"x_max":0,"o":"m -144 759 l -317 759 l -149 972 l -53 972 "},"̛":{"ha":0,"x_min":0,"x_max":0,"o":"m -192 958 l -20 958 l -188 677 l -283 677 "},"̦":{"ha":0,"x_min":0,"x_max":0,"o":"m -192 -72 l -20 -72 l -188 -311 l -283 -311 "},"̧":{"ha":0,"x_min":0,"x_max":0,"o":"m -207 -354 b -340 -267 -264 -354 -318 -318 l -248 -228 b -203 -260 -241 -245 -224 -260 b -149 -207 -171 -260 -149 -237 b -262 -132 -149 -164 -195 -132 l -310 -132 l -227 -1 l -129 -1 l -180 -68 b -52 -201 -97 -79 -52 -129 b -207 -354 -52 -288 -118 -354 "},"̨":{"ha":0,"x_min":0,"x_max":0,"o":"m -178 -306 b -330 -167 -265 -306 -330 -250 b -219 0 -330 -57 -219 0 l -90 0 b -232 -146 -104 -4 -232 -56 b -178 -204 -232 -187 -205 -204 b -112 -165 -151 -204 -130 -191 l -29 -222 b -178 -306 -61 -271 -108 -306 "},"´":{"ha":364,"x_min":0,"x_max":0,"o":"m 175 958 l 351 958 l 143 762 l 22 762 "},"˘":{"ha":550,"x_min":0,"x_max":0,"o":"m 275 775 b 61 958 126 775 61 840 l 178 958 b 275 872 178 899 221 872 b 372 958 332 872 372 901 l 489 958 b 275 775 489 835 416 775 "},"ˇ":{"ha":447,"x_min":0,"x_max":0,"o":"m 9 957 l 138 957 l 224 865 l 311 957 l 439 957 l 224 732 "},"¸":{"ha":380,"x_min":0,"x_max":0,"o":"m 174 -354 b 40 -267 117 -354 62 -318 l 132 -228 b 178 -260 139 -245 157 -260 b 232 -207 210 -260 232 -237 b 118 -132 232 -164 186 -132 l 71 -132 l 154 -1 l 252 -1 l 200 -68 b 329 -201 283 -79 329 -129 b 174 -354 329 -288 262 -354 "},"ˆ":{"ha":443,"x_min":0,"x_max":0,"o":"m 221 983 l 436 745 l 309 745 l 221 843 l 135 745 l 7 745 "},"¨":{"ha":571,"x_min":0,"x_max":0,"o":"m 96 958 l 235 958 l 235 806 l 96 806 m 336 958 l 475 958 l 475 806 l 336 806 "},"˙":{"ha":366,"x_min":0,"x_max":0,"o":"m 102 958 l 276 958 l 276 806 l 102 806 "},"`":{"ha":361,"x_min":0,"x_max":0,"o":"m 9 958 l 186 958 l 339 749 l 218 749 "},"˝":{"ha":599,"x_min":0,"x_max":0,"o":"m 176 958 l 325 958 l 144 734 l 24 734 m 412 958 l 589 958 l 380 734 l 260 734 "},"¯":{"ha":568,"x_min":0,"x_max":0,"o":"m 94 875 l 473 875 l 473 778 l 94 778 "},"˛":{"ha":389,"x_min":0,"x_max":0,"o":"m 211 -306 b 58 -167 123 -306 58 -250 b 170 0 58 -57 170 0 l 298 0 b 157 -146 285 -4 157 -56 b 211 -204 157 -187 183 -204 b 277 -165 237 -204 258 -191 l 359 -222 b 211 -306 328 -271 281 -306 "},"˚":{"ha":429,"x_min":0,"x_max":0,"o":"m 214 725 b 58 882 126 725 58 798 b 214 1038 58 968 127 1038 b 371 882 298 1038 371 970 b 214 725 371 794 301 725 m 214 814 b 282 884 254 814 282 843 b 214 949 282 921 257 949 b 147 884 174 949 147 921 b 214 814 147 843 176 814 "},"˜":{"ha":591,"x_min":0,"x_max":0,"o":"m 406 764 b 229 861 299 764 279 861 b 185 768 201 861 185 828 l 90 768 b 235 962 90 893 146 962 b 407 867 331 962 360 867 b 449 958 431 867 449 899 l 547 958 b 406 764 547 833 493 764 "},"҃":{"ha":0,"x_min":0,"x_max":0,"o":"m -661 1310 l -252 1310 l -252 1394 l -82 1394 l -82 1153 l -496 1153 l -496 1069 l -661 1069 "}}}
